<?xml version="1.0" encoding="utf-8" ?>
<svg shape-rendering="optimizeSpeed" baseProfile="full" height="200px" version="1.1" width="640px" xmlns="http://www.w3.org/2000/svg" xmlns:ev="http://www.w3.org/2001/xml-events" xmlns:xlink="http://www.w3.org/1999/xlink"><defs /><rect fill="rgb(255,255,255)" height="41px" width="41px" x="160px" y="0px" /><rect fill="rgb(255,255,255)" height="41px" width="41px" x="200px" y="0px" /><rect fill="rgb(255,255,255)" height="41px" width="41px" x="400px" y="0px" /><rect fill="rgb(255,255,255)" height="41px" width="41px" x="440px" y="0px" /><rect fill="rgb(255,255,255)" height="41px" width="41px" x="80px" y="40px" /><rect fill="rgb(255,255,255)" height="41px" width="41px" x="120px" y="40px" /><rect fill="rgb(255,255,255)" height="41px" width="41px" x="160px" y="40px" /><rect fill="rgb(255,255,255)" height="41px" width="41px" x="200px" y="40px" /><rect fill="rgb(255,255,255)" height="41px" width="41px" x="400px" y="40px" /><rect fill="rgb(255,255,255)" height="41px" width="41px" x="440px" y="40px" /><rect fill="rgb(255,255,255)" height="41px" width="41px" x="480px" y="40px" /><rect fill="rgb(255,255,255)" height="41px" width="41px" x="520px" y="40px" /><rect fill="rgb(255,255,255)" height="41px" width="41px" x="80px" y="80px" /><rect fill="rgb(255,255,255)" height="41px" width="41px" x="120px" y="80px" /><rect fill="rgb(0,0,0)" height="41px" width="41px" x="160px" y="80px" /><rect fill="rgb(0,0,0)" height="41px" width="41px" x="200px" y="80px" /><rect fill="rgb(0,0,0)" height="41px" width="41px" x="400px" y="80px" /><rect fill="rgb(0,0,0)" height="41px" width="41px" x="440px" y="80px" /><rect fill="rgb(255,255,255)" height="41px" width="41px" x="480px" y="80px" /><rect fill="rgb(255,255,255)" height="41px" width="41px" x="520px" y="80px" /><rect fill="rgb(255,255,255)" height="41px" width="41px" x="80px" y="120px" /><rect fill="rgb(255,255,255)" height="41px" width="41px" x="120px" y="120px" /><rect fill="rgb(0,0,0)" height="41px" width="41px" x="160px" y="120px" /><rect fill="rgb(0,0,0)" height="41px" width="41px" x="200px" y="120px" /><rect fill="rgb(0,0,0)" height="41px" width="41px" x="400px" y="120px" /><rect fill="rgb(0,0,0)" height="41px" width="41px" x="440px" y="120px" /><rect fill="rgb(255,255,255)" height="41px" width="41px" x="480px" y="120px" /><rect fill="rgb(255,255,255)" height="41px" width="41px" x="520px" y="120px" /><rect fill="rgb(255,255,255)" height="41px" width="41px" x="160px" y="160px" /><rect fill="rgb(255,255,255)" height="41px" width="41px" x="200px" y="160px" /><rect fill="rgb(255,255,255)" height="41px" width="41px" x="400px" y="160px" /><rect fill="rgb(255,255,255)" height="41px" width="41px" x="440px" y="160px" /></svg>