<?xml version="1.0" encoding="utf-8" ?>
<svg shape-rendering="optimizeSpeed" baseProfile="full" height="100px" version="1.1" width="320px" xmlns="http://www.w3.org/2000/svg" xmlns:ev="http://www.w3.org/2001/xml-events" xmlns:xlink="http://www.w3.org/1999/xlink"><defs /><rect fill="rgb(255,255,255)" height="21px" width="21px" x="80px" y="0px" /><rect fill="rgb(255,255,255)" height="21px" width="21px" x="100px" y="0px" /><rect fill="rgb(255,255,255)" height="21px" width="21px" x="200px" y="0px" /><rect fill="rgb(255,255,255)" height="21px" width="21px" x="220px" y="0px" /><rect fill="rgb(255,255,255)" height="21px" width="21px" x="40px" y="20px" /><rect fill="rgb(255,255,255)" height="21px" width="21px" x="60px" y="20px" /><rect fill="rgb(255,255,255)" height="21px" width="21px" x="80px" y="20px" /><rect fill="rgb(255,255,255)" height="21px" width="21px" x="100px" y="20px" /><rect fill="rgb(255,255,255)" height="21px" width="21px" x="200px" y="20px" /><rect fill="rgb(255,255,255)" height="21px" width="21px" x="220px" y="20px" /><rect fill="rgb(255,255,255)" height="21px" width="21px" x="240px" y="20px" /><rect fill="rgb(255,255,255)" height="21px" width="21px" x="260px" y="20px" /><rect fill="rgb(255,255,255)" height="21px" width="21px" x="40px" y="40px" /><rect fill="rgb(255,255,255)" height="21px" width="21px" x="60px" y="40px" /><rect fill="rgb(0,0,0)" height="21px" width="21px" x="80px" y="40px" /><rect fill="rgb(0,0,0)" height="21px" width="21px" x="100px" y="40px" /><rect fill="rgb(0,0,0)" height="21px" width="21px" x="200px" y="40px" /><rect fill="rgb(0,0,0)" height="21px" width="21px" x="220px" y="40px" /><rect fill="rgb(255,255,255)" height="21px" width="21px" x="240px" y="40px" /><rect fill="rgb(255,255,255)" height="21px" width="21px" x="260px" y="40px" /><rect fill="rgb(255,255,255)" height="21px" width="21px" x="40px" y="60px" /><rect fill="rgb(255,255,255)" height="21px" width="21px" x="60px" y="60px" /><rect fill="rgb(0,0,0)" height="21px" width="21px" x="80px" y="60px" /><rect fill="rgb(0,0,0)" height="21px" width="21px" x="100px" y="60px" /><rect fill="rgb(0,0,0)" height="21px" width="21px" x="200px" y="60px" /><rect fill="rgb(0,0,0)" height="21px" width="21px" x="220px" y="60px" /><rect fill="rgb(255,255,255)" height="21px" width="21px" x="240px" y="60px" /><rect fill="rgb(255,255,255)" height="21px" width="21px" x="260px" y="60px" /><rect fill="rgb(255,255,255)" height="21px" width="21px" x="80px" y="80px" /><rect fill="rgb(255,255,255)" height="21px" width="21px" x="100px" y="80px" /><rect fill="rgb(255,255,255)" height="21px" width="21px" x="200px" y="80px" /><rect fill="rgb(255,255,255)" height="21px" width="21px" x="220px" y="80px" /></svg>