<?xml version="1.0" encoding="utf-8" ?>
<svg shape-rendering="optimizeSpeed" baseProfile="full" height="320px" version="1.1" width="1280px" xmlns="http://www.w3.org/2000/svg" xmlns:ev="http://www.w3.org/2001/xml-events" xmlns:xlink="http://www.w3.org/1999/xlink"><defs /><rect fill="rgb(0,106,142)" height="21px" width="21px" x="160px" y="0px" /><rect fill="rgb(0,106,142)" height="21px" width="21px" x="180px" y="0px" /><rect fill="rgb(102,225,255)" height="21px" width="21px" x="200px" y="0px" /><rect fill="rgb(102,225,255)" height="21px" width="21px" x="220px" y="0px" /><rect fill="rgb(0,106,142)" height="21px" width="21px" x="480px" y="0px" /><rect fill="rgb(0,106,142)" height="21px" width="21px" x="500px" y="0px" /><rect fill="rgb(0,106,142)" height="21px" width="21px" x="640px" y="0px" /><rect fill="rgb(0,106,142)" height="21px" width="21px" x="660px" y="0px" /><rect fill="rgb(0,106,142)" height="21px" width="21px" x="680px" y="0px" /><rect fill="rgb(0,106,142)" height="21px" width="21px" x="700px" y="0px" /><rect fill="rgb(0,106,142)" height="21px" width="21px" x="720px" y="0px" /><rect fill="rgb(0,106,142)" height="21px" width="21px" x="740px" y="0px" /><rect fill="rgb(0,106,142)" height="21px" width="21px" x="840px" y="0px" /><rect fill="rgb(0,106,142)" height="21px" width="21px" x="860px" y="0px" /><rect fill="rgb(0,106,142)" height="21px" width="21px" x="880px" y="0px" /><rect fill="rgb(0,106,142)" height="21px" width="21px" x="900px" y="0px" /><rect fill="rgb(0,106,142)" height="21px" width="21px" x="1120px" y="0px" /><rect fill="rgb(0,106,142)" height="21px" width="21px" x="1140px" y="0px" /><rect fill="rgb(0,106,142)" height="21px" width="21px" x="120px" y="20px" /><rect fill="rgb(0,106,142)" height="21px" width="21px" x="140px" y="20px" /><rect fill="rgb(51,174,210)" height="21px" width="21px" x="160px" y="20px" /><rect fill="rgb(51,174,210)" height="21px" width="21px" x="180px" y="20px" /><rect fill="rgb(102,225,255)" height="21px" width="21px" x="200px" y="20px" /><rect fill="rgb(102,225,255)" height="21px" width="21px" x="220px" y="20px" /><rect fill="rgb(0,106,142)" height="21px" width="21px" x="440px" y="20px" /><rect fill="rgb(0,106,142)" height="21px" width="21px" x="460px" y="20px" /><rect fill="rgb(51,174,210)" height="21px" width="21px" x="480px" y="20px" /><rect fill="rgb(51,174,210)" height="21px" width="21px" x="500px" y="20px" /><rect fill="rgb(102,225,255)" height="21px" width="21px" x="520px" y="20px" /><rect fill="rgb(102,225,255)" height="21px" width="21px" x="540px" y="20px" /><rect fill="rgb(102,225,255)" height="21px" width="21px" x="640px" y="20px" /><rect fill="rgb(102,225,255)" height="21px" width="21px" x="660px" y="20px" /><rect fill="rgb(102,225,255)" height="21px" width="21px" x="680px" y="20px" /><rect fill="rgb(102,225,255)" height="21px" width="21px" x="700px" y="20px" /><rect fill="rgb(102,225,255)" height="21px" width="21px" x="720px" y="20px" /><rect fill="rgb(102,225,255)" height="21px" width="21px" x="740px" y="20px" /><rect fill="rgb(51,174,210)" height="21px" width="21px" x="760px" y="20px" /><rect fill="rgb(51,174,210)" height="21px" width="21px" x="780px" y="20px" /><rect fill="rgb(0,106,142)" height="21px" width="21px" x="800px" y="20px" /><rect fill="rgb(0,106,142)" height="21px" width="21px" x="820px" y="20px" /><rect fill="rgb(51,174,210)" height="21px" width="21px" x="840px" y="20px" /><rect fill="rgb(51,174,210)" height="21px" width="21px" x="860px" y="20px" /><rect fill="rgb(51,174,210)" height="21px" width="21px" x="880px" y="20px" /><rect fill="rgb(51,174,210)" height="21px" width="21px" x="900px" y="20px" /><rect fill="rgb(102,225,255)" height="21px" width="21px" x="920px" y="20px" /><rect fill="rgb(102,225,255)" height="21px" width="21px" x="940px" y="20px" /><rect fill="rgb(0,106,142)" height="21px" width="21px" x="1080px" y="20px" /><rect fill="rgb(0,106,142)" height="21px" width="21px" x="1100px" y="20px" /><rect fill="rgb(51,174,210)" height="21px" width="21px" x="1120px" y="20px" /><rect fill="rgb(51,174,210)" height="21px" width="21px" x="1140px" y="20px" /><rect fill="rgb(102,225,255)" height="21px" width="21px" x="1160px" y="20px" /><rect fill="rgb(102,225,255)" height="21px" width="21px" x="1180px" y="20px" /><rect fill="rgb(51,174,210)" height="21px" width="21px" x="120px" y="40px" /><rect fill="rgb(51,174,210)" height="21px" width="21px" x="140px" y="40px" /><rect fill="rgb(0,106,142)" height="21px" width="21px" x="400px" y="40px" /><rect fill="rgb(0,106,142)" height="21px" width="21px" x="420px" y="40px" /><rect fill="rgb(51,174,210)" height="21px" width="21px" x="440px" y="40px" /><rect fill="rgb(51,174,210)" height="21px" width="21px" x="460px" y="40px" /><rect fill="rgb(0,0,0)" height="21px" width="21px" x="480px" y="40px" /><rect fill="rgb(0,0,0)" height="21px" width="21px" x="500px" y="40px" /><rect fill="rgb(102,225,255)" height="21px" width="21px" x="520px" y="40px" /><rect fill="rgb(102,225,255)" height="21px" width="21px" x="540px" y="40px" /><rect fill="rgb(255,255,255)" height="21px" width="21px" x="640px" y="40px" /><rect fill="rgb(255,255,255)" height="21px" width="21px" x="660px" y="40px" /><rect fill="rgb(102,225,255)" height="21px" width="21px" x="680px" y="40px" /><rect fill="rgb(102,225,255)" height="21px" width="21px" x="700px" y="40px" /><rect fill="rgb(102,225,255)" height="21px" width="21px" x="720px" y="40px" /><rect fill="rgb(102,225,255)" height="21px" width="21px" x="740px" y="40px" /><rect fill="rgb(102,225,255)" height="21px" width="21px" x="760px" y="40px" /><rect fill="rgb(102,225,255)" height="21px" width="21px" x="780px" y="40px" /><rect fill="rgb(51,174,210)" height="21px" width="21px" x="800px" y="40px" /><rect fill="rgb(51,174,210)" height="21px" width="21px" x="820px" y="40px" /><rect fill="rgb(102,225,255)" height="21px" width="21px" x="920px" y="40px" /><rect fill="rgb(102,225,255)" height="21px" width="21px" x="940px" y="40px" /><rect fill="rgb(0,106,142)" height="21px" width="21px" x="1040px" y="40px" /><rect fill="rgb(0,106,142)" height="21px" width="21px" x="1060px" y="40px" /><rect fill="rgb(51,174,210)" height="21px" width="21px" x="1080px" y="40px" /><rect fill="rgb(51,174,210)" height="21px" width="21px" x="1100px" y="40px" /><rect fill="rgb(102,225,255)" height="21px" width="21px" x="1160px" y="40px" /><rect fill="rgb(102,225,255)" height="21px" width="21px" x="1180px" y="40px" /><rect fill="rgb(0,106,142)" height="21px" width="21px" x="80px" y="60px" /><rect fill="rgb(0,106,142)" height="21px" width="21px" x="100px" y="60px" /><rect fill="rgb(51,174,210)" height="21px" width="21px" x="120px" y="60px" /><rect fill="rgb(51,174,210)" height="21px" width="21px" x="140px" y="60px" /><rect fill="rgb(0,106,142)" height="21px" width="21px" x="160px" y="60px" /><rect fill="rgb(0,106,142)" height="21px" width="21px" x="180px" y="60px" /><rect fill="rgb(0,106,142)" height="21px" width="21px" x="360px" y="60px" /><rect fill="rgb(0,106,142)" height="21px" width="21px" x="380px" y="60px" /><rect fill="rgb(51,174,210)" height="21px" width="21px" x="400px" y="60px" /><rect fill="rgb(51,174,210)" height="21px" width="21px" x="420px" y="60px" /><rect fill="rgb(0,106,142)" height="21px" width="21px" x="440px" y="60px" /><rect fill="rgb(0,106,142)" height="21px" width="21px" x="460px" y="60px" /><rect fill="rgb(0,106,142)" height="21px" width="21px" x="480px" y="60px" /><rect fill="rgb(0,106,142)" height="21px" width="21px" x="500px" y="60px" /><rect fill="rgb(255,255,255)" height="21px" width="21px" x="680px" y="60px" /><rect fill="rgb(255,255,255)" height="21px" width="21px" x="700px" y="60px" /><rect fill="rgb(102,225,255)" height="21px" width="21px" x="720px" y="60px" /><rect fill="rgb(102,225,255)" height="21px" width="21px" x="740px" y="60px" /><rect fill="rgb(255,255,255)" height="21px" width="21px" x="760px" y="60px" /><rect fill="rgb(255,255,255)" height="21px" width="21px" x="780px" y="60px" /><rect fill="rgb(102,225,255)" height="21px" width="21px" x="800px" y="60px" /><rect fill="rgb(102,225,255)" height="21px" width="21px" x="820px" y="60px" /><rect fill="rgb(0,106,142)" height="21px" width="21px" x="840px" y="60px" /><rect fill="rgb(0,106,142)" height="21px" width="21px" x="860px" y="60px" /><rect fill="rgb(0,106,142)" height="21px" width="21px" x="1000px" y="60px" /><rect fill="rgb(0,106,142)" height="21px" width="21px" x="1020px" y="60px" /><rect fill="rgb(51,174,210)" height="21px" width="21px" x="1040px" y="60px" /><rect fill="rgb(51,174,210)" height="21px" width="21px" x="1060px" y="60px" /><rect fill="rgb(0,106,142)" height="21px" width="21px" x="1080px" y="60px" /><rect fill="rgb(0,106,142)" height="21px" width="21px" x="1100px" y="60px" /><rect fill="rgb(0,106,142)" height="21px" width="21px" x="1120px" y="60px" /><rect fill="rgb(0,106,142)" height="21px" width="21px" x="1140px" y="60px" /><rect fill="rgb(0,106,142)" height="21px" width="21px" x="40px" y="80px" /><rect fill="rgb(0,106,142)" height="21px" width="21px" x="60px" y="80px" /><rect fill="rgb(51,174,210)" height="21px" width="21px" x="80px" y="80px" /><rect fill="rgb(51,174,210)" height="21px" width="21px" x="100px" y="80px" /><rect fill="rgb(0,106,142)" height="21px" width="21px" x="120px" y="80px" /><rect fill="rgb(0,106,142)" height="21px" width="21px" x="140px" y="80px" /><rect fill="rgb(51,174,210)" height="21px" width="21px" x="160px" y="80px" /><rect fill="rgb(51,174,210)" height="21px" width="21px" x="180px" y="80px" /><rect fill="rgb(51,174,210)" height="21px" width="21px" x="360px" y="80px" /><rect fill="rgb(51,174,210)" height="21px" width="21px" x="380px" y="80px" /><rect fill="rgb(255,255,255)" height="21px" width="21px" x="400px" y="80px" /><rect fill="rgb(255,255,255)" height="21px" width="21px" x="420px" y="80px" /><rect fill="rgb(255,255,255)" height="21px" width="21px" x="440px" y="80px" /><rect fill="rgb(255,255,255)" height="21px" width="21px" x="460px" y="80px" /><rect fill="rgb(51,174,210)" height="21px" width="21px" x="480px" y="80px" /><rect fill="rgb(51,174,210)" height="21px" width="21px" x="500px" y="80px" /><rect fill="rgb(0,106,142)" height="21px" width="21px" x="520px" y="80px" /><rect fill="rgb(0,106,142)" height="21px" width="21px" x="540px" y="80px" /><rect fill="rgb(255,255,255)" height="21px" width="21px" x="680px" y="80px" /><rect fill="rgb(255,255,255)" height="21px" width="21px" x="700px" y="80px" /><rect fill="rgb(102,225,255)" height="21px" width="21px" x="720px" y="80px" /><rect fill="rgb(102,225,255)" height="21px" width="21px" x="740px" y="80px" /><rect fill="rgb(0,0,0)" height="21px" width="21px" x="760px" y="80px" /><rect fill="rgb(0,0,0)" height="21px" width="21px" x="780px" y="80px" /><rect fill="rgb(255,255,255)" height="21px" width="21px" x="800px" y="80px" /><rect fill="rgb(255,255,255)" height="21px" width="21px" x="820px" y="80px" /><rect fill="rgb(51,174,210)" height="21px" width="21px" x="840px" y="80px" /><rect fill="rgb(51,174,210)" height="21px" width="21px" x="860px" y="80px" /><rect fill="rgb(51,174,210)" height="21px" width="21px" x="1000px" y="80px" /><rect fill="rgb(51,174,210)" height="21px" width="21px" x="1020px" y="80px" /><rect fill="rgb(255,255,255)" height="21px" width="21px" x="1040px" y="80px" /><rect fill="rgb(255,255,255)" height="21px" width="21px" x="1060px" y="80px" /><rect fill="rgb(255,255,255)" height="21px" width="21px" x="1080px" y="80px" /><rect fill="rgb(255,255,255)" height="21px" width="21px" x="1100px" y="80px" /><rect fill="rgb(51,174,210)" height="21px" width="21px" x="1120px" y="80px" /><rect fill="rgb(51,174,210)" height="21px" width="21px" x="1140px" y="80px" /><rect fill="rgb(0,106,142)" height="21px" width="21px" x="1160px" y="80px" /><rect fill="rgb(0,106,142)" height="21px" width="21px" x="1180px" y="80px" /><rect fill="rgb(51,174,210)" height="21px" width="21px" x="40px" y="100px" /><rect fill="rgb(51,174,210)" height="21px" width="21px" x="60px" y="100px" /><rect fill="rgb(255,255,255)" height="21px" width="21px" x="80px" y="100px" /><rect fill="rgb(255,255,255)" height="21px" width="21px" x="100px" y="100px" /><rect fill="rgb(255,255,255)" height="21px" width="21px" x="120px" y="100px" /><rect fill="rgb(255,255,255)" height="21px" width="21px" x="140px" y="100px" /><rect fill="rgb(102,225,255)" height="21px" width="21px" x="160px" y="100px" /><rect fill="rgb(102,225,255)" height="21px" width="21px" x="180px" y="100px" /><rect fill="rgb(0,106,142)" height="21px" width="21px" x="200px" y="100px" /><rect fill="rgb(0,106,142)" height="21px" width="21px" x="220px" y="100px" /><rect fill="rgb(0,106,142)" height="21px" width="21px" x="320px" y="100px" /><rect fill="rgb(0,106,142)" height="21px" width="21px" x="340px" y="100px" /><rect fill="rgb(102,225,255)" height="21px" width="21px" x="360px" y="100px" /><rect fill="rgb(102,225,255)" height="21px" width="21px" x="380px" y="100px" /><rect fill="rgb(0,0,0)" height="21px" width="21px" x="400px" y="100px" /><rect fill="rgb(0,0,0)" height="21px" width="21px" x="420px" y="100px" /><rect fill="rgb(255,255,255)" height="21px" width="21px" x="440px" y="100px" /><rect fill="rgb(255,255,255)" height="21px" width="21px" x="460px" y="100px" /><rect fill="rgb(102,225,255)" height="21px" width="21px" x="480px" y="100px" /><rect fill="rgb(102,225,255)" height="21px" width="21px" x="500px" y="100px" /><rect fill="rgb(51,174,210)" height="21px" width="21px" x="520px" y="100px" /><rect fill="rgb(51,174,210)" height="21px" width="21px" x="540px" y="100px" /><rect fill="rgb(255,255,255)" height="21px" width="21px" x="720px" y="100px" /><rect fill="rgb(255,255,255)" height="21px" width="21px" x="740px" y="100px" /><rect fill="rgb(0,0,0)" height="21px" width="21px" x="760px" y="100px" /><rect fill="rgb(0,0,0)" height="21px" width="21px" x="780px" y="100px" /><rect fill="rgb(255,255,255)" height="21px" width="21px" x="800px" y="100px" /><rect fill="rgb(255,255,255)" height="21px" width="21px" x="820px" y="100px" /><rect fill="rgb(102,225,255)" height="21px" width="21px" x="840px" y="100px" /><rect fill="rgb(102,225,255)" height="21px" width="21px" x="860px" y="100px" /><rect fill="rgb(0,106,142)" height="21px" width="21px" x="880px" y="100px" /><rect fill="rgb(0,106,142)" height="21px" width="21px" x="900px" y="100px" /><rect fill="rgb(0,106,142)" height="21px" width="21px" x="960px" y="100px" /><rect fill="rgb(0,106,142)" height="21px" width="21px" x="980px" y="100px" /><rect fill="rgb(102,225,255)" height="21px" width="21px" x="1000px" y="100px" /><rect fill="rgb(102,225,255)" height="21px" width="21px" x="1020px" y="100px" /><rect fill="rgb(0,0,0)" height="21px" width="21px" x="1040px" y="100px" /><rect fill="rgb(0,0,0)" height="21px" width="21px" x="1060px" y="100px" /><rect fill="rgb(255,255,255)" height="21px" width="21px" x="1080px" y="100px" /><rect fill="rgb(255,255,255)" height="21px" width="21px" x="1100px" y="100px" /><rect fill="rgb(102,225,255)" height="21px" width="21px" x="1120px" y="100px" /><rect fill="rgb(102,225,255)" height="21px" width="21px" x="1140px" y="100px" /><rect fill="rgb(51,174,210)" height="21px" width="21px" x="1160px" y="100px" /><rect fill="rgb(51,174,210)" height="21px" width="21px" x="1180px" y="100px" /><rect fill="rgb(0,106,142)" height="21px" width="21px" x="0px" y="120px" /><rect fill="rgb(0,106,142)" height="21px" width="21px" x="20px" y="120px" /><rect fill="rgb(102,225,255)" height="21px" width="21px" x="40px" y="120px" /><rect fill="rgb(102,225,255)" height="21px" width="21px" x="60px" y="120px" /><rect fill="rgb(0,0,0)" height="21px" width="21px" x="80px" y="120px" /><rect fill="rgb(0,0,0)" height="21px" width="21px" x="100px" y="120px" /><rect fill="rgb(255,255,255)" height="21px" width="21px" x="120px" y="120px" /><rect fill="rgb(255,255,255)" height="21px" width="21px" x="140px" y="120px" /><rect fill="rgb(102,225,255)" height="21px" width="21px" x="160px" y="120px" /><rect fill="rgb(102,225,255)" height="21px" width="21px" x="180px" y="120px" /><rect fill="rgb(51,174,210)" height="21px" width="21px" x="200px" y="120px" /><rect fill="rgb(51,174,210)" height="21px" width="21px" x="220px" y="120px" /><rect fill="rgb(51,174,210)" height="21px" width="21px" x="320px" y="120px" /><rect fill="rgb(51,174,210)" height="21px" width="21px" x="340px" y="120px" /><rect fill="rgb(102,225,255)" height="21px" width="21px" x="360px" y="120px" /><rect fill="rgb(102,225,255)" height="21px" width="21px" x="380px" y="120px" /><rect fill="rgb(255,255,255)" height="21px" width="21px" x="400px" y="120px" /><rect fill="rgb(255,255,255)" height="21px" width="21px" x="420px" y="120px" /><rect fill="rgb(255,255,255)" height="21px" width="21px" x="440px" y="120px" /><rect fill="rgb(255,255,255)" height="21px" width="21px" x="460px" y="120px" /><rect fill="rgb(102,225,255)" height="21px" width="21px" x="480px" y="120px" /><rect fill="rgb(102,225,255)" height="21px" width="21px" x="500px" y="120px" /><rect fill="rgb(102,225,255)" height="21px" width="21px" x="520px" y="120px" /><rect fill="rgb(102,225,255)" height="21px" width="21px" x="540px" y="120px" /><rect fill="rgb(255,255,255)" height="21px" width="21px" x="720px" y="120px" /><rect fill="rgb(255,255,255)" height="21px" width="21px" x="740px" y="120px" /><rect fill="rgb(255,255,255)" height="21px" width="21px" x="760px" y="120px" /><rect fill="rgb(255,255,255)" height="21px" width="21px" x="780px" y="120px" /><rect fill="rgb(102,225,255)" height="21px" width="21px" x="800px" y="120px" /><rect fill="rgb(102,225,255)" height="21px" width="21px" x="820px" y="120px" /><rect fill="rgb(102,225,255)" height="21px" width="21px" x="840px" y="120px" /><rect fill="rgb(102,225,255)" height="21px" width="21px" x="860px" y="120px" /><rect fill="rgb(0,106,142)" height="21px" width="21px" x="880px" y="120px" /><rect fill="rgb(0,106,142)" height="21px" width="21px" x="900px" y="120px" /><rect fill="rgb(51,174,210)" height="21px" width="21px" x="960px" y="120px" /><rect fill="rgb(51,174,210)" height="21px" width="21px" x="980px" y="120px" /><rect fill="rgb(102,225,255)" height="21px" width="21px" x="1000px" y="120px" /><rect fill="rgb(102,225,255)" height="21px" width="21px" x="1020px" y="120px" /><rect fill="rgb(255,255,255)" height="21px" width="21px" x="1040px" y="120px" /><rect fill="rgb(255,255,255)" height="21px" width="21px" x="1060px" y="120px" /><rect fill="rgb(255,255,255)" height="21px" width="21px" x="1080px" y="120px" /><rect fill="rgb(255,255,255)" height="21px" width="21px" x="1100px" y="120px" /><rect fill="rgb(102,225,255)" height="21px" width="21px" x="1120px" y="120px" /><rect fill="rgb(102,225,255)" height="21px" width="21px" x="1140px" y="120px" /><rect fill="rgb(102,225,255)" height="21px" width="21px" x="1160px" y="120px" /><rect fill="rgb(102,225,255)" height="21px" width="21px" x="1180px" y="120px" /><rect fill="rgb(51,174,210)" height="21px" width="21px" x="0px" y="140px" /><rect fill="rgb(51,174,210)" height="21px" width="21px" x="20px" y="140px" /><rect fill="rgb(102,225,255)" height="21px" width="21px" x="40px" y="140px" /><rect fill="rgb(102,225,255)" height="21px" width="21px" x="60px" y="140px" /><rect fill="rgb(255,255,255)" height="21px" width="21px" x="80px" y="140px" /><rect fill="rgb(255,255,255)" height="21px" width="21px" x="100px" y="140px" /><rect fill="rgb(255,255,255)" height="21px" width="21px" x="120px" y="140px" /><rect fill="rgb(255,255,255)" height="21px" width="21px" x="140px" y="140px" /><rect fill="rgb(102,225,255)" height="21px" width="21px" x="160px" y="140px" /><rect fill="rgb(102,225,255)" height="21px" width="21px" x="180px" y="140px" /><rect fill="rgb(51,174,210)" height="21px" width="21px" x="200px" y="140px" /><rect fill="rgb(51,174,210)" height="21px" width="21px" x="220px" y="140px" /><rect fill="rgb(0,106,142)" height="21px" width="21px" x="240px" y="140px" /><rect fill="rgb(0,106,142)" height="21px" width="21px" x="260px" y="140px" /><rect fill="rgb(102,225,255)" height="21px" width="21px" x="320px" y="140px" /><rect fill="rgb(102,225,255)" height="21px" width="21px" x="340px" y="140px" /><rect fill="rgb(102,225,255)" height="21px" width="21px" x="360px" y="140px" /><rect fill="rgb(102,225,255)" height="21px" width="21px" x="380px" y="140px" /><rect fill="rgb(102,225,255)" height="21px" width="21px" x="400px" y="140px" /><rect fill="rgb(102,225,255)" height="21px" width="21px" x="420px" y="140px" /><rect fill="rgb(102,225,255)" height="21px" width="21px" x="440px" y="140px" /><rect fill="rgb(102,225,255)" height="21px" width="21px" x="460px" y="140px" /><rect fill="rgb(102,225,255)" height="21px" width="21px" x="480px" y="140px" /><rect fill="rgb(102,225,255)" height="21px" width="21px" x="500px" y="140px" /><rect fill="rgb(102,225,255)" height="21px" width="21px" x="520px" y="140px" /><rect fill="rgb(102,225,255)" height="21px" width="21px" x="540px" y="140px" /><rect fill="rgb(0,106,142)" height="21px" width="21px" x="560px" y="140px" /><rect fill="rgb(0,106,142)" height="21px" width="21px" x="580px" y="140px" /><rect fill="rgb(102,225,255)" height="21px" width="21px" x="760px" y="140px" /><rect fill="rgb(102,225,255)" height="21px" width="21px" x="780px" y="140px" /><rect fill="rgb(102,225,255)" height="21px" width="21px" x="800px" y="140px" /><rect fill="rgb(102,225,255)" height="21px" width="21px" x="820px" y="140px" /><rect fill="rgb(102,225,255)" height="21px" width="21px" x="840px" y="140px" /><rect fill="rgb(102,225,255)" height="21px" width="21px" x="860px" y="140px" /><rect fill="rgb(0,106,142)" height="21px" width="21px" x="880px" y="140px" /><rect fill="rgb(0,106,142)" height="21px" width="21px" x="900px" y="140px" /><rect fill="rgb(102,225,255)" height="21px" width="21px" x="960px" y="140px" /><rect fill="rgb(102,225,255)" height="21px" width="21px" x="980px" y="140px" /><rect fill="rgb(102,225,255)" height="21px" width="21px" x="1000px" y="140px" /><rect fill="rgb(102,225,255)" height="21px" width="21px" x="1020px" y="140px" /><rect fill="rgb(102,225,255)" height="21px" width="21px" x="1040px" y="140px" /><rect fill="rgb(102,225,255)" height="21px" width="21px" x="1060px" y="140px" /><rect fill="rgb(102,225,255)" height="21px" width="21px" x="1080px" y="140px" /><rect fill="rgb(102,225,255)" height="21px" width="21px" x="1100px" y="140px" /><rect fill="rgb(102,225,255)" height="21px" width="21px" x="1120px" y="140px" /><rect fill="rgb(102,225,255)" height="21px" width="21px" x="1140px" y="140px" /><rect fill="rgb(102,225,255)" height="21px" width="21px" x="1160px" y="140px" /><rect fill="rgb(102,225,255)" height="21px" width="21px" x="1180px" y="140px" /><rect fill="rgb(0,106,142)" height="21px" width="21px" x="1200px" y="140px" /><rect fill="rgb(0,106,142)" height="21px" width="21px" x="1220px" y="140px" /><rect fill="rgb(102,225,255)" height="21px" width="21px" x="0px" y="160px" /><rect fill="rgb(102,225,255)" height="21px" width="21px" x="20px" y="160px" /><rect fill="rgb(102,225,255)" height="21px" width="21px" x="40px" y="160px" /><rect fill="rgb(102,225,255)" height="21px" width="21px" x="60px" y="160px" /><rect fill="rgb(102,225,255)" height="21px" width="21px" x="80px" y="160px" /><rect fill="rgb(102,225,255)" height="21px" width="21px" x="100px" y="160px" /><rect fill="rgb(102,225,255)" height="21px" width="21px" x="120px" y="160px" /><rect fill="rgb(102,225,255)" height="21px" width="21px" x="140px" y="160px" /><rect fill="rgb(102,225,255)" height="21px" width="21px" x="160px" y="160px" /><rect fill="rgb(102,225,255)" height="21px" width="21px" x="180px" y="160px" /><rect fill="rgb(51,174,210)" height="21px" width="21px" x="200px" y="160px" /><rect fill="rgb(51,174,210)" height="21px" width="21px" x="220px" y="160px" /><rect fill="rgb(0,106,142)" height="21px" width="21px" x="240px" y="160px" /><rect fill="rgb(0,106,142)" height="21px" width="21px" x="260px" y="160px" /><rect fill="rgb(102,225,255)" height="21px" width="21px" x="320px" y="160px" /><rect fill="rgb(102,225,255)" height="21px" width="21px" x="340px" y="160px" /><rect fill="rgb(102,225,255)" height="21px" width="21px" x="360px" y="160px" /><rect fill="rgb(102,225,255)" height="21px" width="21px" x="380px" y="160px" /><rect fill="rgb(102,225,255)" height="21px" width="21px" x="400px" y="160px" /><rect fill="rgb(102,225,255)" height="21px" width="21px" x="420px" y="160px" /><rect fill="rgb(102,225,255)" height="21px" width="21px" x="440px" y="160px" /><rect fill="rgb(102,225,255)" height="21px" width="21px" x="460px" y="160px" /><rect fill="rgb(102,225,255)" height="21px" width="21px" x="480px" y="160px" /><rect fill="rgb(102,225,255)" height="21px" width="21px" x="500px" y="160px" /><rect fill="rgb(102,225,255)" height="21px" width="21px" x="520px" y="160px" /><rect fill="rgb(102,225,255)" height="21px" width="21px" x="540px" y="160px" /><rect fill="rgb(0,106,142)" height="21px" width="21px" x="560px" y="160px" /><rect fill="rgb(0,106,142)" height="21px" width="21px" x="580px" y="160px" /><rect fill="rgb(102,225,255)" height="21px" width="21px" x="760px" y="160px" /><rect fill="rgb(102,225,255)" height="21px" width="21px" x="780px" y="160px" /><rect fill="rgb(102,225,255)" height="21px" width="21px" x="800px" y="160px" /><rect fill="rgb(102,225,255)" height="21px" width="21px" x="820px" y="160px" /><rect fill="rgb(102,225,255)" height="21px" width="21px" x="840px" y="160px" /><rect fill="rgb(102,225,255)" height="21px" width="21px" x="860px" y="160px" /><rect fill="rgb(0,106,142)" height="21px" width="21px" x="880px" y="160px" /><rect fill="rgb(0,106,142)" height="21px" width="21px" x="900px" y="160px" /><rect fill="rgb(102,225,255)" height="21px" width="21px" x="960px" y="160px" /><rect fill="rgb(102,225,255)" height="21px" width="21px" x="980px" y="160px" /><rect fill="rgb(102,225,255)" height="21px" width="21px" x="1000px" y="160px" /><rect fill="rgb(102,225,255)" height="21px" width="21px" x="1020px" y="160px" /><rect fill="rgb(102,225,255)" height="21px" width="21px" x="1040px" y="160px" /><rect fill="rgb(102,225,255)" height="21px" width="21px" x="1060px" y="160px" /><rect fill="rgb(102,225,255)" height="21px" width="21px" x="1080px" y="160px" /><rect fill="rgb(102,225,255)" height="21px" width="21px" x="1100px" y="160px" /><rect fill="rgb(102,225,255)" height="21px" width="21px" x="1120px" y="160px" /><rect fill="rgb(102,225,255)" height="21px" width="21px" x="1140px" y="160px" /><rect fill="rgb(102,225,255)" height="21px" width="21px" x="1160px" y="160px" /><rect fill="rgb(102,225,255)" height="21px" width="21px" x="1180px" y="160px" /><rect fill="rgb(0,106,142)" height="21px" width="21px" x="1200px" y="160px" /><rect fill="rgb(0,106,142)" height="21px" width="21px" x="1220px" y="160px" /><rect fill="rgb(102,225,255)" height="21px" width="21px" x="0px" y="180px" /><rect fill="rgb(102,225,255)" height="21px" width="21px" x="20px" y="180px" /><rect fill="rgb(102,225,255)" height="21px" width="21px" x="40px" y="180px" /><rect fill="rgb(102,225,255)" height="21px" width="21px" x="60px" y="180px" /><rect fill="rgb(102,225,255)" height="21px" width="21px" x="80px" y="180px" /><rect fill="rgb(102,225,255)" height="21px" width="21px" x="100px" y="180px" /><rect fill="rgb(102,225,255)" height="21px" width="21px" x="120px" y="180px" /><rect fill="rgb(102,225,255)" height="21px" width="21px" x="140px" y="180px" /><rect fill="rgb(51,174,210)" height="21px" width="21px" x="160px" y="180px" /><rect fill="rgb(51,174,210)" height="21px" width="21px" x="180px" y="180px" /><rect fill="rgb(51,174,210)" height="21px" width="21px" x="200px" y="180px" /><rect fill="rgb(51,174,210)" height="21px" width="21px" x="220px" y="180px" /><rect fill="rgb(0,106,142)" height="21px" width="21px" x="240px" y="180px" /><rect fill="rgb(0,106,142)" height="21px" width="21px" x="260px" y="180px" /><rect fill="rgb(255,255,255)" height="21px" width="21px" x="360px" y="180px" /><rect fill="rgb(255,255,255)" height="21px" width="21px" x="380px" y="180px" /><rect fill="rgb(255,255,255)" height="21px" width="21px" x="400px" y="180px" /><rect fill="rgb(255,255,255)" height="21px" width="21px" x="420px" y="180px" /><rect fill="rgb(102,225,255)" height="21px" width="21px" x="480px" y="180px" /><rect fill="rgb(102,225,255)" height="21px" width="21px" x="500px" y="180px" /><rect fill="rgb(102,225,255)" height="21px" width="21px" x="520px" y="180px" /><rect fill="rgb(102,225,255)" height="21px" width="21px" x="540px" y="180px" /><rect fill="rgb(0,106,142)" height="21px" width="21px" x="560px" y="180px" /><rect fill="rgb(0,106,142)" height="21px" width="21px" x="580px" y="180px" /><rect fill="rgb(255,255,255)" height="21px" width="21px" x="720px" y="180px" /><rect fill="rgb(255,255,255)" height="21px" width="21px" x="740px" y="180px" /><rect fill="rgb(102,225,255)" height="21px" width="21px" x="760px" y="180px" /><rect fill="rgb(102,225,255)" height="21px" width="21px" x="780px" y="180px" /><rect fill="rgb(102,225,255)" height="21px" width="21px" x="800px" y="180px" /><rect fill="rgb(102,225,255)" height="21px" width="21px" x="820px" y="180px" /><rect fill="rgb(102,225,255)" height="21px" width="21px" x="840px" y="180px" /><rect fill="rgb(102,225,255)" height="21px" width="21px" x="860px" y="180px" /><rect fill="rgb(0,106,142)" height="21px" width="21px" x="880px" y="180px" /><rect fill="rgb(0,106,142)" height="21px" width="21px" x="900px" y="180px" /><rect fill="rgb(255,255,255)" height="21px" width="21px" x="1000px" y="180px" /><rect fill="rgb(255,255,255)" height="21px" width="21px" x="1020px" y="180px" /><rect fill="rgb(255,255,255)" height="21px" width="21px" x="1040px" y="180px" /><rect fill="rgb(255,255,255)" height="21px" width="21px" x="1060px" y="180px" /><rect fill="rgb(102,225,255)" height="21px" width="21px" x="1120px" y="180px" /><rect fill="rgb(102,225,255)" height="21px" width="21px" x="1140px" y="180px" /><rect fill="rgb(102,225,255)" height="21px" width="21px" x="1160px" y="180px" /><rect fill="rgb(102,225,255)" height="21px" width="21px" x="1180px" y="180px" /><rect fill="rgb(0,106,142)" height="21px" width="21px" x="1200px" y="180px" /><rect fill="rgb(0,106,142)" height="21px" width="21px" x="1220px" y="180px" /><rect fill="rgb(102,225,255)" height="21px" width="21px" x="0px" y="200px" /><rect fill="rgb(102,225,255)" height="21px" width="21px" x="20px" y="200px" /><rect fill="rgb(102,225,255)" height="21px" width="21px" x="40px" y="200px" /><rect fill="rgb(102,225,255)" height="21px" width="21px" x="60px" y="200px" /><rect fill="rgb(102,225,255)" height="21px" width="21px" x="80px" y="200px" /><rect fill="rgb(102,225,255)" height="21px" width="21px" x="100px" y="200px" /><rect fill="rgb(102,225,255)" height="21px" width="21px" x="120px" y="200px" /><rect fill="rgb(102,225,255)" height="21px" width="21px" x="140px" y="200px" /><rect fill="rgb(51,174,210)" height="21px" width="21px" x="200px" y="200px" /><rect fill="rgb(51,174,210)" height="21px" width="21px" x="220px" y="200px" /><rect fill="rgb(0,106,142)" height="21px" width="21px" x="240px" y="200px" /><rect fill="rgb(0,106,142)" height="21px" width="21px" x="260px" y="200px" /><rect fill="rgb(102,225,255)" height="21px" width="21px" x="480px" y="200px" /><rect fill="rgb(102,225,255)" height="21px" width="21px" x="500px" y="200px" /><rect fill="rgb(51,174,210)" height="21px" width="21px" x="520px" y="200px" /><rect fill="rgb(51,174,210)" height="21px" width="21px" x="540px" y="200px" /><rect fill="rgb(0,106,142)" height="21px" width="21px" x="560px" y="200px" /><rect fill="rgb(0,106,142)" height="21px" width="21px" x="580px" y="200px" /><rect fill="rgb(255,255,255)" height="21px" width="21px" x="720px" y="200px" /><rect fill="rgb(255,255,255)" height="21px" width="21px" x="740px" y="200px" /><rect fill="rgb(102,225,255)" height="21px" width="21px" x="760px" y="200px" /><rect fill="rgb(102,225,255)" height="21px" width="21px" x="780px" y="200px" /><rect fill="rgb(102,225,255)" height="21px" width="21px" x="800px" y="200px" /><rect fill="rgb(102,225,255)" height="21px" width="21px" x="820px" y="200px" /><rect fill="rgb(51,174,210)" height="21px" width="21px" x="840px" y="200px" /><rect fill="rgb(51,174,210)" height="21px" width="21px" x="860px" y="200px" /><rect fill="rgb(0,106,142)" height="21px" width="21px" x="880px" y="200px" /><rect fill="rgb(0,106,142)" height="21px" width="21px" x="900px" y="200px" /><rect fill="rgb(102,225,255)" height="21px" width="21px" x="1120px" y="200px" /><rect fill="rgb(102,225,255)" height="21px" width="21px" x="1140px" y="200px" /><rect fill="rgb(51,174,210)" height="21px" width="21px" x="1160px" y="200px" /><rect fill="rgb(51,174,210)" height="21px" width="21px" x="1180px" y="200px" /><rect fill="rgb(0,106,142)" height="21px" width="21px" x="1200px" y="200px" /><rect fill="rgb(0,106,142)" height="21px" width="21px" x="1220px" y="200px" /><rect fill="rgb(102,225,255)" height="21px" width="21px" x="0px" y="220px" /><rect fill="rgb(102,225,255)" height="21px" width="21px" x="20px" y="220px" /><rect fill="rgb(102,225,255)" height="21px" width="21px" x="40px" y="220px" /><rect fill="rgb(102,225,255)" height="21px" width="21px" x="60px" y="220px" /><rect fill="rgb(102,225,255)" height="21px" width="21px" x="80px" y="220px" /><rect fill="rgb(102,225,255)" height="21px" width="21px" x="100px" y="220px" /><rect fill="rgb(51,174,210)" height="21px" width="21px" x="120px" y="220px" /><rect fill="rgb(51,174,210)" height="21px" width="21px" x="140px" y="220px" /><rect fill="rgb(51,174,210)" height="21px" width="21px" x="200px" y="220px" /><rect fill="rgb(51,174,210)" height="21px" width="21px" x="220px" y="220px" /><rect fill="rgb(0,106,142)" height="21px" width="21px" x="240px" y="220px" /><rect fill="rgb(0,106,142)" height="21px" width="21px" x="260px" y="220px" /><rect fill="rgb(255,255,255)" height="21px" width="21px" x="440px" y="220px" /><rect fill="rgb(255,255,255)" height="21px" width="21px" x="460px" y="220px" /><rect fill="rgb(102,225,255)" height="21px" width="21px" x="480px" y="220px" /><rect fill="rgb(102,225,255)" height="21px" width="21px" x="500px" y="220px" /><rect fill="rgb(51,174,210)" height="21px" width="21px" x="520px" y="220px" /><rect fill="rgb(51,174,210)" height="21px" width="21px" x="540px" y="220px" /><rect fill="rgb(0,106,142)" height="21px" width="21px" x="560px" y="220px" /><rect fill="rgb(0,106,142)" height="21px" width="21px" x="580px" y="220px" /><rect fill="rgb(255,255,255)" height="21px" width="21px" x="680px" y="220px" /><rect fill="rgb(255,255,255)" height="21px" width="21px" x="700px" y="220px" /><rect fill="rgb(102,225,255)" height="21px" width="21px" x="720px" y="220px" /><rect fill="rgb(102,225,255)" height="21px" width="21px" x="740px" y="220px" /><rect fill="rgb(102,225,255)" height="21px" width="21px" x="760px" y="220px" /><rect fill="rgb(102,225,255)" height="21px" width="21px" x="780px" y="220px" /><rect fill="rgb(102,225,255)" height="21px" width="21px" x="800px" y="220px" /><rect fill="rgb(102,225,255)" height="21px" width="21px" x="820px" y="220px" /><rect fill="rgb(51,174,210)" height="21px" width="21px" x="840px" y="220px" /><rect fill="rgb(51,174,210)" height="21px" width="21px" x="860px" y="220px" /><rect fill="rgb(255,255,255)" height="21px" width="21px" x="1080px" y="220px" /><rect fill="rgb(255,255,255)" height="21px" width="21px" x="1100px" y="220px" /><rect fill="rgb(102,225,255)" height="21px" width="21px" x="1120px" y="220px" /><rect fill="rgb(102,225,255)" height="21px" width="21px" x="1140px" y="220px" /><rect fill="rgb(51,174,210)" height="21px" width="21px" x="1160px" y="220px" /><rect fill="rgb(51,174,210)" height="21px" width="21px" x="1180px" y="220px" /><rect fill="rgb(0,106,142)" height="21px" width="21px" x="1200px" y="220px" /><rect fill="rgb(0,106,142)" height="21px" width="21px" x="1220px" y="220px" /><rect fill="rgb(51,174,210)" height="21px" width="21px" x="0px" y="240px" /><rect fill="rgb(51,174,210)" height="21px" width="21px" x="20px" y="240px" /><rect fill="rgb(51,174,210)" height="21px" width="21px" x="40px" y="240px" /><rect fill="rgb(51,174,210)" height="21px" width="21px" x="60px" y="240px" /><rect fill="rgb(51,174,210)" height="21px" width="21px" x="80px" y="240px" /><rect fill="rgb(51,174,210)" height="21px" width="21px" x="100px" y="240px" /><rect fill="rgb(51,174,210)" height="21px" width="21px" x="160px" y="240px" /><rect fill="rgb(51,174,210)" height="21px" width="21px" x="180px" y="240px" /><rect fill="rgb(51,174,210)" height="21px" width="21px" x="200px" y="240px" /><rect fill="rgb(51,174,210)" height="21px" width="21px" x="220px" y="240px" /><rect fill="rgb(0,106,142)" height="21px" width="21px" x="240px" y="240px" /><rect fill="rgb(0,106,142)" height="21px" width="21px" x="260px" y="240px" /><rect fill="rgb(255,255,255)" height="21px" width="21px" x="360px" y="240px" /><rect fill="rgb(255,255,255)" height="21px" width="21px" x="380px" y="240px" /><rect fill="rgb(255,255,255)" height="21px" width="21px" x="400px" y="240px" /><rect fill="rgb(255,255,255)" height="21px" width="21px" x="420px" y="240px" /><rect fill="rgb(102,225,255)" height="21px" width="21px" x="440px" y="240px" /><rect fill="rgb(102,225,255)" height="21px" width="21px" x="460px" y="240px" /><rect fill="rgb(51,174,210)" height="21px" width="21px" x="480px" y="240px" /><rect fill="rgb(51,174,210)" height="21px" width="21px" x="500px" y="240px" /><rect fill="rgb(51,174,210)" height="21px" width="21px" x="520px" y="240px" /><rect fill="rgb(51,174,210)" height="21px" width="21px" x="540px" y="240px" /><rect fill="rgb(0,106,142)" height="21px" width="21px" x="560px" y="240px" /><rect fill="rgb(0,106,142)" height="21px" width="21px" x="580px" y="240px" /><rect fill="rgb(255,255,255)" height="21px" width="21px" x="680px" y="240px" /><rect fill="rgb(255,255,255)" height="21px" width="21px" x="700px" y="240px" /><rect fill="rgb(102,225,255)" height="21px" width="21px" x="720px" y="240px" /><rect fill="rgb(102,225,255)" height="21px" width="21px" x="740px" y="240px" /><rect fill="rgb(102,225,255)" height="21px" width="21px" x="760px" y="240px" /><rect fill="rgb(102,225,255)" height="21px" width="21px" x="780px" y="240px" /><rect fill="rgb(51,174,210)" height="21px" width="21px" x="800px" y="240px" /><rect fill="rgb(51,174,210)" height="21px" width="21px" x="820px" y="240px" /><rect fill="rgb(0,106,142)" height="21px" width="21px" x="840px" y="240px" /><rect fill="rgb(0,106,142)" height="21px" width="21px" x="860px" y="240px" /><rect fill="rgb(255,255,255)" height="21px" width="21px" x="1000px" y="240px" /><rect fill="rgb(255,255,255)" height="21px" width="21px" x="1020px" y="240px" /><rect fill="rgb(255,255,255)" height="21px" width="21px" x="1040px" y="240px" /><rect fill="rgb(255,255,255)" height="21px" width="21px" x="1060px" y="240px" /><rect fill="rgb(102,225,255)" height="21px" width="21px" x="1080px" y="240px" /><rect fill="rgb(102,225,255)" height="21px" width="21px" x="1100px" y="240px" /><rect fill="rgb(51,174,210)" height="21px" width="21px" x="1120px" y="240px" /><rect fill="rgb(51,174,210)" height="21px" width="21px" x="1140px" y="240px" /><rect fill="rgb(51,174,210)" height="21px" width="21px" x="1160px" y="240px" /><rect fill="rgb(51,174,210)" height="21px" width="21px" x="1180px" y="240px" /><rect fill="rgb(0,106,142)" height="21px" width="21px" x="1200px" y="240px" /><rect fill="rgb(0,106,142)" height="21px" width="21px" x="1220px" y="240px" /><rect fill="rgb(51,174,210)" height="21px" width="21px" x="120px" y="260px" /><rect fill="rgb(51,174,210)" height="21px" width="21px" x="140px" y="260px" /><rect fill="rgb(51,174,210)" height="21px" width="21px" x="160px" y="260px" /><rect fill="rgb(51,174,210)" height="21px" width="21px" x="180px" y="260px" /><rect fill="rgb(0,106,142)" height="21px" width="21px" x="200px" y="260px" /><rect fill="rgb(0,106,142)" height="21px" width="21px" x="220px" y="260px" /><rect fill="rgb(51,174,210)" height="21px" width="21px" x="320px" y="260px" /><rect fill="rgb(51,174,210)" height="21px" width="21px" x="340px" y="260px" /><rect fill="rgb(102,225,255)" height="21px" width="21px" x="360px" y="260px" /><rect fill="rgb(102,225,255)" height="21px" width="21px" x="380px" y="260px" /><rect fill="rgb(102,225,255)" height="21px" width="21px" x="400px" y="260px" /><rect fill="rgb(102,225,255)" height="21px" width="21px" x="420px" y="260px" /><rect fill="rgb(51,174,210)" height="21px" width="21px" x="440px" y="260px" /><rect fill="rgb(51,174,210)" height="21px" width="21px" x="460px" y="260px" /><rect fill="rgb(51,174,210)" height="21px" width="21px" x="480px" y="260px" /><rect fill="rgb(51,174,210)" height="21px" width="21px" x="500px" y="260px" /><rect fill="rgb(0,106,142)" height="21px" width="21px" x="520px" y="260px" /><rect fill="rgb(0,106,142)" height="21px" width="21px" x="540px" y="260px" /><rect fill="rgb(255,255,255)" height="21px" width="21px" x="640px" y="260px" /><rect fill="rgb(255,255,255)" height="21px" width="21px" x="660px" y="260px" /><rect fill="rgb(102,225,255)" height="21px" width="21px" x="680px" y="260px" /><rect fill="rgb(102,225,255)" height="21px" width="21px" x="700px" y="260px" /><rect fill="rgb(102,225,255)" height="21px" width="21px" x="720px" y="260px" /><rect fill="rgb(102,225,255)" height="21px" width="21px" x="740px" y="260px" /><rect fill="rgb(102,225,255)" height="21px" width="21px" x="760px" y="260px" /><rect fill="rgb(102,225,255)" height="21px" width="21px" x="780px" y="260px" /><rect fill="rgb(51,174,210)" height="21px" width="21px" x="800px" y="260px" /><rect fill="rgb(51,174,210)" height="21px" width="21px" x="820px" y="260px" /><rect fill="rgb(0,106,142)" height="21px" width="21px" x="840px" y="260px" /><rect fill="rgb(0,106,142)" height="21px" width="21px" x="860px" y="260px" /><rect fill="rgb(51,174,210)" height="21px" width="21px" x="960px" y="260px" /><rect fill="rgb(51,174,210)" height="21px" width="21px" x="980px" y="260px" /><rect fill="rgb(102,225,255)" height="21px" width="21px" x="1000px" y="260px" /><rect fill="rgb(102,225,255)" height="21px" width="21px" x="1020px" y="260px" /><rect fill="rgb(102,225,255)" height="21px" width="21px" x="1040px" y="260px" /><rect fill="rgb(102,225,255)" height="21px" width="21px" x="1060px" y="260px" /><rect fill="rgb(51,174,210)" height="21px" width="21px" x="1080px" y="260px" /><rect fill="rgb(51,174,210)" height="21px" width="21px" x="1100px" y="260px" /><rect fill="rgb(51,174,210)" height="21px" width="21px" x="1120px" y="260px" /><rect fill="rgb(51,174,210)" height="21px" width="21px" x="1140px" y="260px" /><rect fill="rgb(0,106,142)" height="21px" width="21px" x="1160px" y="260px" /><rect fill="rgb(0,106,142)" height="21px" width="21px" x="1180px" y="260px" /><rect fill="rgb(51,174,210)" height="21px" width="21px" x="40px" y="280px" /><rect fill="rgb(51,174,210)" height="21px" width="21px" x="60px" y="280px" /><rect fill="rgb(51,174,210)" height="21px" width="21px" x="80px" y="280px" /><rect fill="rgb(51,174,210)" height="21px" width="21px" x="100px" y="280px" /><rect fill="rgb(51,174,210)" height="21px" width="21px" x="120px" y="280px" /><rect fill="rgb(51,174,210)" height="21px" width="21px" x="140px" y="280px" /><rect fill="rgb(0,106,142)" height="21px" width="21px" x="160px" y="280px" /><rect fill="rgb(0,106,142)" height="21px" width="21px" x="180px" y="280px" /><rect fill="rgb(0,106,142)" height="21px" width="21px" x="200px" y="280px" /><rect fill="rgb(0,106,142)" height="21px" width="21px" x="220px" y="280px" /><rect fill="rgb(0,106,142)" height="21px" width="21px" x="320px" y="280px" /><rect fill="rgb(0,106,142)" height="21px" width="21px" x="340px" y="280px" /><rect fill="rgb(51,174,210)" height="21px" width="21px" x="360px" y="280px" /><rect fill="rgb(51,174,210)" height="21px" width="21px" x="380px" y="280px" /><rect fill="rgb(51,174,210)" height="21px" width="21px" x="400px" y="280px" /><rect fill="rgb(51,174,210)" height="21px" width="21px" x="420px" y="280px" /><rect fill="rgb(51,174,210)" height="21px" width="21px" x="440px" y="280px" /><rect fill="rgb(51,174,210)" height="21px" width="21px" x="460px" y="280px" /><rect fill="rgb(0,106,142)" height="21px" width="21px" x="480px" y="280px" /><rect fill="rgb(0,106,142)" height="21px" width="21px" x="500px" y="280px" /><rect fill="rgb(0,106,142)" height="21px" width="21px" x="520px" y="280px" /><rect fill="rgb(0,106,142)" height="21px" width="21px" x="540px" y="280px" /><rect fill="rgb(102,225,255)" height="21px" width="21px" x="640px" y="280px" /><rect fill="rgb(102,225,255)" height="21px" width="21px" x="660px" y="280px" /><rect fill="rgb(102,225,255)" height="21px" width="21px" x="680px" y="280px" /><rect fill="rgb(102,225,255)" height="21px" width="21px" x="700px" y="280px" /><rect fill="rgb(51,174,210)" height="21px" width="21px" x="720px" y="280px" /><rect fill="rgb(51,174,210)" height="21px" width="21px" x="740px" y="280px" /><rect fill="rgb(51,174,210)" height="21px" width="21px" x="760px" y="280px" /><rect fill="rgb(51,174,210)" height="21px" width="21px" x="780px" y="280px" /><rect fill="rgb(0,106,142)" height="21px" width="21px" x="800px" y="280px" /><rect fill="rgb(0,106,142)" height="21px" width="21px" x="820px" y="280px" /><rect fill="rgb(0,106,142)" height="21px" width="21px" x="960px" y="280px" /><rect fill="rgb(0,106,142)" height="21px" width="21px" x="980px" y="280px" /><rect fill="rgb(51,174,210)" height="21px" width="21px" x="1000px" y="280px" /><rect fill="rgb(51,174,210)" height="21px" width="21px" x="1020px" y="280px" /><rect fill="rgb(51,174,210)" height="21px" width="21px" x="1040px" y="280px" /><rect fill="rgb(51,174,210)" height="21px" width="21px" x="1060px" y="280px" /><rect fill="rgb(51,174,210)" height="21px" width="21px" x="1080px" y="280px" /><rect fill="rgb(51,174,210)" height="21px" width="21px" x="1100px" y="280px" /><rect fill="rgb(0,106,142)" height="21px" width="21px" x="1120px" y="280px" /><rect fill="rgb(0,106,142)" height="21px" width="21px" x="1140px" y="280px" /><rect fill="rgb(0,106,142)" height="21px" width="21px" x="1160px" y="280px" /><rect fill="rgb(0,106,142)" height="21px" width="21px" x="1180px" y="280px" /><rect fill="rgb(0,106,142)" height="21px" width="21px" x="40px" y="300px" /><rect fill="rgb(0,106,142)" height="21px" width="21px" x="60px" y="300px" /><rect fill="rgb(0,106,142)" height="21px" width="21px" x="80px" y="300px" /><rect fill="rgb(0,106,142)" height="21px" width="21px" x="100px" y="300px" /><rect fill="rgb(0,106,142)" height="21px" width="21px" x="120px" y="300px" /><rect fill="rgb(0,106,142)" height="21px" width="21px" x="140px" y="300px" /><rect fill="rgb(0,106,142)" height="21px" width="21px" x="160px" y="300px" /><rect fill="rgb(0,106,142)" height="21px" width="21px" x="180px" y="300px" /><rect fill="rgb(0,106,142)" height="21px" width="21px" x="360px" y="300px" /><rect fill="rgb(0,106,142)" height="21px" width="21px" x="380px" y="300px" /><rect fill="rgb(0,106,142)" height="21px" width="21px" x="400px" y="300px" /><rect fill="rgb(0,106,142)" height="21px" width="21px" x="420px" y="300px" /><rect fill="rgb(0,106,142)" height="21px" width="21px" x="440px" y="300px" /><rect fill="rgb(0,106,142)" height="21px" width="21px" x="460px" y="300px" /><rect fill="rgb(0,106,142)" height="21px" width="21px" x="480px" y="300px" /><rect fill="rgb(0,106,142)" height="21px" width="21px" x="500px" y="300px" /><rect fill="rgb(0,106,142)" height="21px" width="21px" x="640px" y="300px" /><rect fill="rgb(0,106,142)" height="21px" width="21px" x="660px" y="300px" /><rect fill="rgb(0,106,142)" height="21px" width="21px" x="680px" y="300px" /><rect fill="rgb(0,106,142)" height="21px" width="21px" x="700px" y="300px" /><rect fill="rgb(0,106,142)" height="21px" width="21px" x="720px" y="300px" /><rect fill="rgb(0,106,142)" height="21px" width="21px" x="740px" y="300px" /><rect fill="rgb(0,106,142)" height="21px" width="21px" x="760px" y="300px" /><rect fill="rgb(0,106,142)" height="21px" width="21px" x="780px" y="300px" /><rect fill="rgb(0,106,142)" height="21px" width="21px" x="1000px" y="300px" /><rect fill="rgb(0,106,142)" height="21px" width="21px" x="1020px" y="300px" /><rect fill="rgb(0,106,142)" height="21px" width="21px" x="1040px" y="300px" /><rect fill="rgb(0,106,142)" height="21px" width="21px" x="1060px" y="300px" /><rect fill="rgb(0,106,142)" height="21px" width="21px" x="1080px" y="300px" /><rect fill="rgb(0,106,142)" height="21px" width="21px" x="1100px" y="300px" /><rect fill="rgb(0,106,142)" height="21px" width="21px" x="1120px" y="300px" /><rect fill="rgb(0,106,142)" height="21px" width="21px" x="1140px" y="300px" /></svg>