<?xml version="1.0" encoding="utf-8" ?>
<svg shape-rendering="optimizeSpeed" baseProfile="full" height="320px" version="1.1" width="320px" xmlns="http://www.w3.org/2000/svg" xmlns:ev="http://www.w3.org/2001/xml-events" xmlns:xlink="http://www.w3.org/1999/xlink"><defs /><rect fill="rgb(102,225,255)" height="21px" width="21px" x="0px" y="0px" /><rect fill="rgb(102,225,255)" height="21px" width="21px" x="20px" y="0px" /><rect fill="rgb(102,225,255)" height="21px" width="21px" x="280px" y="0px" /><rect fill="rgb(102,225,255)" height="21px" width="21px" x="300px" y="0px" /><rect fill="rgb(102,225,255)" height="21px" width="21px" x="0px" y="20px" /><rect fill="rgb(102,225,255)" height="21px" width="21px" x="20px" y="20px" /><rect fill="rgb(102,225,255)" height="21px" width="21px" x="280px" y="20px" /><rect fill="rgb(102,225,255)" height="21px" width="21px" x="300px" y="20px" /><rect fill="rgb(51,174,210)" height="21px" width="21px" x="40px" y="40px" /><rect fill="rgb(51,174,210)" height="21px" width="21px" x="60px" y="40px" /><rect fill="rgb(0,106,142)" height="21px" width="21px" x="120px" y="40px" /><rect fill="rgb(0,106,142)" height="21px" width="21px" x="140px" y="40px" /><rect fill="rgb(0,106,142)" height="21px" width="21px" x="160px" y="40px" /><rect fill="rgb(0,106,142)" height="21px" width="21px" x="180px" y="40px" /><rect fill="rgb(51,174,210)" height="21px" width="21px" x="240px" y="40px" /><rect fill="rgb(51,174,210)" height="21px" width="21px" x="260px" y="40px" /><rect fill="rgb(51,174,210)" height="21px" width="21px" x="40px" y="60px" /><rect fill="rgb(51,174,210)" height="21px" width="21px" x="60px" y="60px" /><rect fill="rgb(0,106,142)" height="21px" width="21px" x="80px" y="60px" /><rect fill="rgb(0,106,142)" height="21px" width="21px" x="100px" y="60px" /><rect fill="rgb(51,174,210)" height="21px" width="21px" x="120px" y="60px" /><rect fill="rgb(51,174,210)" height="21px" width="21px" x="140px" y="60px" /><rect fill="rgb(51,174,210)" height="21px" width="21px" x="160px" y="60px" /><rect fill="rgb(51,174,210)" height="21px" width="21px" x="180px" y="60px" /><rect fill="rgb(0,106,142)" height="21px" width="21px" x="200px" y="60px" /><rect fill="rgb(0,106,142)" height="21px" width="21px" x="220px" y="60px" /><rect fill="rgb(51,174,210)" height="21px" width="21px" x="240px" y="60px" /><rect fill="rgb(51,174,210)" height="21px" width="21px" x="260px" y="60px" /><rect fill="rgb(51,174,210)" height="21px" width="21px" x="80px" y="80px" /><rect fill="rgb(51,174,210)" height="21px" width="21px" x="100px" y="80px" /><rect fill="rgb(51,174,210)" height="21px" width="21px" x="120px" y="80px" /><rect fill="rgb(51,174,210)" height="21px" width="21px" x="140px" y="80px" /><rect fill="rgb(51,174,210)" height="21px" width="21px" x="160px" y="80px" /><rect fill="rgb(51,174,210)" height="21px" width="21px" x="180px" y="80px" /><rect fill="rgb(51,174,210)" height="21px" width="21px" x="200px" y="80px" /><rect fill="rgb(51,174,210)" height="21px" width="21px" x="220px" y="80px" /><rect fill="rgb(255,255,255)" height="21px" width="21px" x="40px" y="100px" /><rect fill="rgb(255,255,255)" height="21px" width="21px" x="60px" y="100px" /><rect fill="rgb(255,255,255)" height="21px" width="21px" x="80px" y="100px" /><rect fill="rgb(255,255,255)" height="21px" width="21px" x="100px" y="100px" /><rect fill="rgb(102,225,255)" height="21px" width="21px" x="120px" y="100px" /><rect fill="rgb(102,225,255)" height="21px" width="21px" x="140px" y="100px" /><rect fill="rgb(102,225,255)" height="21px" width="21px" x="160px" y="100px" /><rect fill="rgb(102,225,255)" height="21px" width="21px" x="180px" y="100px" /><rect fill="rgb(255,255,255)" height="21px" width="21px" x="200px" y="100px" /><rect fill="rgb(255,255,255)" height="21px" width="21px" x="220px" y="100px" /><rect fill="rgb(255,255,255)" height="21px" width="21px" x="240px" y="100px" /><rect fill="rgb(255,255,255)" height="21px" width="21px" x="260px" y="100px" /><rect fill="rgb(255,255,255)" height="21px" width="21px" x="40px" y="120px" /><rect fill="rgb(255,255,255)" height="21px" width="21px" x="60px" y="120px" /><rect fill="rgb(0,0,0)" height="21px" width="21px" x="80px" y="120px" /><rect fill="rgb(0,0,0)" height="21px" width="21px" x="100px" y="120px" /><rect fill="rgb(102,225,255)" height="21px" width="21px" x="120px" y="120px" /><rect fill="rgb(102,225,255)" height="21px" width="21px" x="140px" y="120px" /><rect fill="rgb(102,225,255)" height="21px" width="21px" x="160px" y="120px" /><rect fill="rgb(102,225,255)" height="21px" width="21px" x="180px" y="120px" /><rect fill="rgb(0,0,0)" height="21px" width="21px" x="200px" y="120px" /><rect fill="rgb(0,0,0)" height="21px" width="21px" x="220px" y="120px" /><rect fill="rgb(255,255,255)" height="21px" width="21px" x="240px" y="120px" /><rect fill="rgb(255,255,255)" height="21px" width="21px" x="260px" y="120px" /><rect fill="rgb(0,106,142)" height="21px" width="21px" x="0px" y="140px" /><rect fill="rgb(0,106,142)" height="21px" width="21px" x="20px" y="140px" /><rect fill="rgb(255,255,255)" height="21px" width="21px" x="40px" y="140px" /><rect fill="rgb(255,255,255)" height="21px" width="21px" x="60px" y="140px" /><rect fill="rgb(255,255,255)" height="21px" width="21px" x="80px" y="140px" /><rect fill="rgb(255,255,255)" height="21px" width="21px" x="100px" y="140px" /><rect fill="rgb(102,225,255)" height="21px" width="21px" x="120px" y="140px" /><rect fill="rgb(102,225,255)" height="21px" width="21px" x="140px" y="140px" /><rect fill="rgb(102,225,255)" height="21px" width="21px" x="160px" y="140px" /><rect fill="rgb(102,225,255)" height="21px" width="21px" x="180px" y="140px" /><rect fill="rgb(255,255,255)" height="21px" width="21px" x="200px" y="140px" /><rect fill="rgb(255,255,255)" height="21px" width="21px" x="220px" y="140px" /><rect fill="rgb(255,255,255)" height="21px" width="21px" x="240px" y="140px" /><rect fill="rgb(255,255,255)" height="21px" width="21px" x="260px" y="140px" /><rect fill="rgb(0,106,142)" height="21px" width="21px" x="280px" y="140px" /><rect fill="rgb(0,106,142)" height="21px" width="21px" x="300px" y="140px" /><rect fill="rgb(51,174,210)" height="21px" width="21px" x="0px" y="160px" /><rect fill="rgb(51,174,210)" height="21px" width="21px" x="20px" y="160px" /><rect fill="rgb(51,174,210)" height="21px" width="21px" x="40px" y="160px" /><rect fill="rgb(51,174,210)" height="21px" width="21px" x="60px" y="160px" /><rect fill="rgb(102,225,255)" height="21px" width="21px" x="80px" y="160px" /><rect fill="rgb(102,225,255)" height="21px" width="21px" x="100px" y="160px" /><rect fill="rgb(102,225,255)" height="21px" width="21px" x="120px" y="160px" /><rect fill="rgb(102,225,255)" height="21px" width="21px" x="140px" y="160px" /><rect fill="rgb(102,225,255)" height="21px" width="21px" x="160px" y="160px" /><rect fill="rgb(102,225,255)" height="21px" width="21px" x="180px" y="160px" /><rect fill="rgb(102,225,255)" height="21px" width="21px" x="200px" y="160px" /><rect fill="rgb(102,225,255)" height="21px" width="21px" x="220px" y="160px" /><rect fill="rgb(51,174,210)" height="21px" width="21px" x="240px" y="160px" /><rect fill="rgb(51,174,210)" height="21px" width="21px" x="260px" y="160px" /><rect fill="rgb(51,174,210)" height="21px" width="21px" x="280px" y="160px" /><rect fill="rgb(51,174,210)" height="21px" width="21px" x="300px" y="160px" /><rect fill="rgb(51,174,210)" height="21px" width="21px" x="0px" y="180px" /><rect fill="rgb(51,174,210)" height="21px" width="21px" x="20px" y="180px" /><rect fill="rgb(51,174,210)" height="21px" width="21px" x="40px" y="180px" /><rect fill="rgb(51,174,210)" height="21px" width="21px" x="60px" y="180px" /><rect fill="rgb(102,225,255)" height="21px" width="21px" x="80px" y="180px" /><rect fill="rgb(102,225,255)" height="21px" width="21px" x="100px" y="180px" /><rect fill="rgb(102,225,255)" height="21px" width="21px" x="120px" y="180px" /><rect fill="rgb(102,225,255)" height="21px" width="21px" x="140px" y="180px" /><rect fill="rgb(102,225,255)" height="21px" width="21px" x="160px" y="180px" /><rect fill="rgb(102,225,255)" height="21px" width="21px" x="180px" y="180px" /><rect fill="rgb(102,225,255)" height="21px" width="21px" x="200px" y="180px" /><rect fill="rgb(102,225,255)" height="21px" width="21px" x="220px" y="180px" /><rect fill="rgb(51,174,210)" height="21px" width="21px" x="240px" y="180px" /><rect fill="rgb(51,174,210)" height="21px" width="21px" x="260px" y="180px" /><rect fill="rgb(51,174,210)" height="21px" width="21px" x="280px" y="180px" /><rect fill="rgb(51,174,210)" height="21px" width="21px" x="300px" y="180px" /><rect fill="rgb(51,174,210)" height="21px" width="21px" x="0px" y="200px" /><rect fill="rgb(51,174,210)" height="21px" width="21px" x="20px" y="200px" /><rect fill="rgb(0,0,0)" height="21px" width="21px" x="40px" y="200px" /><rect fill="rgb(0,0,0)" height="21px" width="21px" x="60px" y="200px" /><rect fill="rgb(102,225,255)" height="21px" width="21px" x="80px" y="200px" /><rect fill="rgb(102,225,255)" height="21px" width="21px" x="100px" y="200px" /><rect fill="rgb(102,225,255)" height="21px" width="21px" x="120px" y="200px" /><rect fill="rgb(102,225,255)" height="21px" width="21px" x="140px" y="200px" /><rect fill="rgb(102,225,255)" height="21px" width="21px" x="160px" y="200px" /><rect fill="rgb(102,225,255)" height="21px" width="21px" x="180px" y="200px" /><rect fill="rgb(102,225,255)" height="21px" width="21px" x="200px" y="200px" /><rect fill="rgb(102,225,255)" height="21px" width="21px" x="220px" y="200px" /><rect fill="rgb(0,0,0)" height="21px" width="21px" x="240px" y="200px" /><rect fill="rgb(0,0,0)" height="21px" width="21px" x="260px" y="200px" /><rect fill="rgb(51,174,210)" height="21px" width="21px" x="280px" y="200px" /><rect fill="rgb(51,174,210)" height="21px" width="21px" x="300px" y="200px" /><rect fill="rgb(51,174,210)" height="21px" width="21px" x="0px" y="220px" /><rect fill="rgb(51,174,210)" height="21px" width="21px" x="20px" y="220px" /><rect fill="rgb(0,0,0)" height="21px" width="21px" x="40px" y="220px" /><rect fill="rgb(0,0,0)" height="21px" width="21px" x="60px" y="220px" /><rect fill="rgb(51,174,210)" height="21px" width="21px" x="80px" y="220px" /><rect fill="rgb(51,174,210)" height="21px" width="21px" x="100px" y="220px" /><rect fill="rgb(102,225,255)" height="21px" width="21px" x="120px" y="220px" /><rect fill="rgb(102,225,255)" height="21px" width="21px" x="140px" y="220px" /><rect fill="rgb(102,225,255)" height="21px" width="21px" x="160px" y="220px" /><rect fill="rgb(102,225,255)" height="21px" width="21px" x="180px" y="220px" /><rect fill="rgb(51,174,210)" height="21px" width="21px" x="200px" y="220px" /><rect fill="rgb(51,174,210)" height="21px" width="21px" x="220px" y="220px" /><rect fill="rgb(0,0,0)" height="21px" width="21px" x="240px" y="220px" /><rect fill="rgb(0,0,0)" height="21px" width="21px" x="260px" y="220px" /><rect fill="rgb(51,174,210)" height="21px" width="21px" x="280px" y="220px" /><rect fill="rgb(51,174,210)" height="21px" width="21px" x="300px" y="220px" /><rect fill="rgb(0,106,142)" height="21px" width="21px" x="0px" y="240px" /><rect fill="rgb(0,106,142)" height="21px" width="21px" x="20px" y="240px" /><rect fill="rgb(51,174,210)" height="21px" width="21px" x="40px" y="240px" /><rect fill="rgb(51,174,210)" height="21px" width="21px" x="60px" y="240px" /><rect fill="rgb(0,0,0)" height="21px" width="21px" x="80px" y="240px" /><rect fill="rgb(0,0,0)" height="21px" width="21px" x="100px" y="240px" /><rect fill="rgb(51,174,210)" height="21px" width="21px" x="120px" y="240px" /><rect fill="rgb(51,174,210)" height="21px" width="21px" x="140px" y="240px" /><rect fill="rgb(51,174,210)" height="21px" width="21px" x="160px" y="240px" /><rect fill="rgb(51,174,210)" height="21px" width="21px" x="180px" y="240px" /><rect fill="rgb(0,0,0)" height="21px" width="21px" x="200px" y="240px" /><rect fill="rgb(0,0,0)" height="21px" width="21px" x="220px" y="240px" /><rect fill="rgb(51,174,210)" height="21px" width="21px" x="240px" y="240px" /><rect fill="rgb(51,174,210)" height="21px" width="21px" x="260px" y="240px" /><rect fill="rgb(0,106,142)" height="21px" width="21px" x="280px" y="240px" /><rect fill="rgb(0,106,142)" height="21px" width="21px" x="300px" y="240px" /><rect fill="rgb(51,174,210)" height="21px" width="21px" x="40px" y="260px" /><rect fill="rgb(51,174,210)" height="21px" width="21px" x="60px" y="260px" /><rect fill="rgb(51,174,210)" height="21px" width="21px" x="80px" y="260px" /><rect fill="rgb(51,174,210)" height="21px" width="21px" x="100px" y="260px" /><rect fill="rgb(0,0,0)" height="21px" width="21px" x="120px" y="260px" /><rect fill="rgb(0,0,0)" height="21px" width="21px" x="140px" y="260px" /><rect fill="rgb(0,0,0)" height="21px" width="21px" x="160px" y="260px" /><rect fill="rgb(0,0,0)" height="21px" width="21px" x="180px" y="260px" /><rect fill="rgb(51,174,210)" height="21px" width="21px" x="200px" y="260px" /><rect fill="rgb(51,174,210)" height="21px" width="21px" x="220px" y="260px" /><rect fill="rgb(51,174,210)" height="21px" width="21px" x="240px" y="260px" /><rect fill="rgb(51,174,210)" height="21px" width="21px" x="260px" y="260px" /><rect fill="rgb(0,106,142)" height="21px" width="21px" x="40px" y="280px" /><rect fill="rgb(0,106,142)" height="21px" width="21px" x="60px" y="280px" /><rect fill="rgb(51,174,210)" height="21px" width="21px" x="80px" y="280px" /><rect fill="rgb(51,174,210)" height="21px" width="21px" x="100px" y="280px" /><rect fill="rgb(51,174,210)" height="21px" width="21px" x="120px" y="280px" /><rect fill="rgb(51,174,210)" height="21px" width="21px" x="140px" y="280px" /><rect fill="rgb(51,174,210)" height="21px" width="21px" x="160px" y="280px" /><rect fill="rgb(51,174,210)" height="21px" width="21px" x="180px" y="280px" /><rect fill="rgb(51,174,210)" height="21px" width="21px" x="200px" y="280px" /><rect fill="rgb(51,174,210)" height="21px" width="21px" x="220px" y="280px" /><rect fill="rgb(0,106,142)" height="21px" width="21px" x="240px" y="280px" /><rect fill="rgb(0,106,142)" height="21px" width="21px" x="260px" y="280px" /><rect fill="rgb(0,106,142)" height="21px" width="21px" x="80px" y="300px" /><rect fill="rgb(0,106,142)" height="21px" width="21px" x="100px" y="300px" /><rect fill="rgb(0,106,142)" height="21px" width="21px" x="120px" y="300px" /><rect fill="rgb(0,106,142)" height="21px" width="21px" x="140px" y="300px" /><rect fill="rgb(0,106,142)" height="21px" width="21px" x="160px" y="300px" /><rect fill="rgb(0,106,142)" height="21px" width="21px" x="180px" y="300px" /><rect fill="rgb(0,106,142)" height="21px" width="21px" x="200px" y="300px" /><rect fill="rgb(0,106,142)" height="21px" width="21px" x="220px" y="300px" /></svg>