<?xml version="1.0" encoding="utf-8" ?>
<svg shape-rendering="optimizeSpeed" baseProfile="full" height="320px" version="1.1" width="640px" xmlns="http://www.w3.org/2000/svg" xmlns:ev="http://www.w3.org/2001/xml-events" xmlns:xlink="http://www.w3.org/1999/xlink"><defs /><rect fill="rgb(224,81,87)" height="21px" width="21px" x="0px" y="0px" /><rect fill="rgb(224,81,87)" height="21px" width="21px" x="20px" y="0px" /><rect fill="rgb(189,31,135)" height="21px" width="21px" x="120px" y="0px" /><rect fill="rgb(189,31,135)" height="21px" width="21px" x="140px" y="0px" /><rect fill="rgb(189,31,135)" height="21px" width="21px" x="160px" y="0px" /><rect fill="rgb(189,31,135)" height="21px" width="21px" x="180px" y="0px" /><rect fill="rgb(224,81,87)" height="21px" width="21px" x="280px" y="0px" /><rect fill="rgb(224,81,87)" height="21px" width="21px" x="300px" y="0px" /><rect fill="rgb(224,81,87)" height="21px" width="21px" x="320px" y="0px" /><rect fill="rgb(224,81,87)" height="21px" width="21px" x="340px" y="0px" /><rect fill="rgb(189,31,135)" height="21px" width="21px" x="440px" y="0px" /><rect fill="rgb(189,31,135)" height="21px" width="21px" x="460px" y="0px" /><rect fill="rgb(189,31,135)" height="21px" width="21px" x="480px" y="0px" /><rect fill="rgb(189,31,135)" height="21px" width="21px" x="500px" y="0px" /><rect fill="rgb(224,81,87)" height="21px" width="21px" x="600px" y="0px" /><rect fill="rgb(224,81,87)" height="21px" width="21px" x="620px" y="0px" /><rect fill="rgb(189,31,135)" height="21px" width="21px" x="0px" y="20px" /><rect fill="rgb(189,31,135)" height="21px" width="21px" x="20px" y="20px" /><rect fill="rgb(189,31,135)" height="21px" width="21px" x="80px" y="20px" /><rect fill="rgb(189,31,135)" height="21px" width="21px" x="100px" y="20px" /><rect fill="rgb(224,81,87)" height="21px" width="21px" x="120px" y="20px" /><rect fill="rgb(224,81,87)" height="21px" width="21px" x="140px" y="20px" /><rect fill="rgb(224,81,87)" height="21px" width="21px" x="160px" y="20px" /><rect fill="rgb(224,81,87)" height="21px" width="21px" x="180px" y="20px" /><rect fill="rgb(189,31,135)" height="21px" width="21px" x="200px" y="20px" /><rect fill="rgb(189,31,135)" height="21px" width="21px" x="220px" y="20px" /><rect fill="rgb(189,31,135)" height="21px" width="21px" x="280px" y="20px" /><rect fill="rgb(189,31,135)" height="21px" width="21px" x="300px" y="20px" /><rect fill="rgb(189,31,135)" height="21px" width="21px" x="320px" y="20px" /><rect fill="rgb(189,31,135)" height="21px" width="21px" x="340px" y="20px" /><rect fill="rgb(189,31,135)" height="21px" width="21px" x="400px" y="20px" /><rect fill="rgb(189,31,135)" height="21px" width="21px" x="420px" y="20px" /><rect fill="rgb(224,81,87)" height="21px" width="21px" x="440px" y="20px" /><rect fill="rgb(224,81,87)" height="21px" width="21px" x="460px" y="20px" /><rect fill="rgb(224,81,87)" height="21px" width="21px" x="480px" y="20px" /><rect fill="rgb(224,81,87)" height="21px" width="21px" x="500px" y="20px" /><rect fill="rgb(189,31,135)" height="21px" width="21px" x="520px" y="20px" /><rect fill="rgb(189,31,135)" height="21px" width="21px" x="540px" y="20px" /><rect fill="rgb(189,31,135)" height="21px" width="21px" x="600px" y="20px" /><rect fill="rgb(189,31,135)" height="21px" width="21px" x="620px" y="20px" /><rect fill="rgb(224,81,87)" height="21px" width="21px" x="40px" y="40px" /><rect fill="rgb(224,81,87)" height="21px" width="21px" x="60px" y="40px" /><rect fill="rgb(224,81,87)" height="21px" width="21px" x="80px" y="40px" /><rect fill="rgb(224,81,87)" height="21px" width="21px" x="100px" y="40px" /><rect fill="rgb(224,81,87)" height="21px" width="21px" x="120px" y="40px" /><rect fill="rgb(224,81,87)" height="21px" width="21px" x="140px" y="40px" /><rect fill="rgb(224,81,87)" height="21px" width="21px" x="160px" y="40px" /><rect fill="rgb(224,81,87)" height="21px" width="21px" x="180px" y="40px" /><rect fill="rgb(224,81,87)" height="21px" width="21px" x="200px" y="40px" /><rect fill="rgb(224,81,87)" height="21px" width="21px" x="220px" y="40px" /><rect fill="rgb(189,31,135)" height="21px" width="21px" x="240px" y="40px" /><rect fill="rgb(189,31,135)" height="21px" width="21px" x="260px" y="40px" /><rect fill="rgb(224,81,87)" height="21px" width="21px" x="360px" y="40px" /><rect fill="rgb(224,81,87)" height="21px" width="21px" x="380px" y="40px" /><rect fill="rgb(224,81,87)" height="21px" width="21px" x="400px" y="40px" /><rect fill="rgb(224,81,87)" height="21px" width="21px" x="420px" y="40px" /><rect fill="rgb(224,81,87)" height="21px" width="21px" x="440px" y="40px" /><rect fill="rgb(224,81,87)" height="21px" width="21px" x="460px" y="40px" /><rect fill="rgb(224,81,87)" height="21px" width="21px" x="480px" y="40px" /><rect fill="rgb(224,81,87)" height="21px" width="21px" x="500px" y="40px" /><rect fill="rgb(224,81,87)" height="21px" width="21px" x="520px" y="40px" /><rect fill="rgb(224,81,87)" height="21px" width="21px" x="540px" y="40px" /><rect fill="rgb(189,31,135)" height="21px" width="21px" x="560px" y="40px" /><rect fill="rgb(189,31,135)" height="21px" width="21px" x="580px" y="40px" /><rect fill="rgb(224,81,87)" height="21px" width="21px" x="40px" y="60px" /><rect fill="rgb(224,81,87)" height="21px" width="21px" x="60px" y="60px" /><rect fill="rgb(224,81,87)" height="21px" width="21px" x="80px" y="60px" /><rect fill="rgb(224,81,87)" height="21px" width="21px" x="100px" y="60px" /><rect fill="rgb(224,81,87)" height="21px" width="21px" x="120px" y="60px" /><rect fill="rgb(224,81,87)" height="21px" width="21px" x="140px" y="60px" /><rect fill="rgb(224,81,87)" height="21px" width="21px" x="160px" y="60px" /><rect fill="rgb(224,81,87)" height="21px" width="21px" x="180px" y="60px" /><rect fill="rgb(224,81,87)" height="21px" width="21px" x="200px" y="60px" /><rect fill="rgb(224,81,87)" height="21px" width="21px" x="220px" y="60px" /><rect fill="rgb(224,81,87)" height="21px" width="21px" x="240px" y="60px" /><rect fill="rgb(224,81,87)" height="21px" width="21px" x="260px" y="60px" /><rect fill="rgb(224,81,87)" height="21px" width="21px" x="360px" y="60px" /><rect fill="rgb(224,81,87)" height="21px" width="21px" x="380px" y="60px" /><rect fill="rgb(224,81,87)" height="21px" width="21px" x="400px" y="60px" /><rect fill="rgb(224,81,87)" height="21px" width="21px" x="420px" y="60px" /><rect fill="rgb(224,81,87)" height="21px" width="21px" x="440px" y="60px" /><rect fill="rgb(224,81,87)" height="21px" width="21px" x="460px" y="60px" /><rect fill="rgb(224,81,87)" height="21px" width="21px" x="480px" y="60px" /><rect fill="rgb(224,81,87)" height="21px" width="21px" x="500px" y="60px" /><rect fill="rgb(224,81,87)" height="21px" width="21px" x="520px" y="60px" /><rect fill="rgb(224,81,87)" height="21px" width="21px" x="540px" y="60px" /><rect fill="rgb(224,81,87)" height="21px" width="21px" x="560px" y="60px" /><rect fill="rgb(224,81,87)" height="21px" width="21px" x="580px" y="60px" /><rect fill="rgb(224,81,87)" height="21px" width="21px" x="0px" y="80px" /><rect fill="rgb(224,81,87)" height="21px" width="21px" x="20px" y="80px" /><rect fill="rgb(224,81,87)" height="21px" width="21px" x="40px" y="80px" /><rect fill="rgb(224,81,87)" height="21px" width="21px" x="60px" y="80px" /><rect fill="rgb(224,81,87)" height="21px" width="21px" x="80px" y="80px" /><rect fill="rgb(224,81,87)" height="21px" width="21px" x="100px" y="80px" /><rect fill="rgb(224,81,87)" height="21px" width="21px" x="120px" y="80px" /><rect fill="rgb(224,81,87)" height="21px" width="21px" x="140px" y="80px" /><rect fill="rgb(224,81,87)" height="21px" width="21px" x="160px" y="80px" /><rect fill="rgb(224,81,87)" height="21px" width="21px" x="180px" y="80px" /><rect fill="rgb(224,81,87)" height="21px" width="21px" x="200px" y="80px" /><rect fill="rgb(224,81,87)" height="21px" width="21px" x="220px" y="80px" /><rect fill="rgb(224,81,87)" height="21px" width="21px" x="240px" y="80px" /><rect fill="rgb(224,81,87)" height="21px" width="21px" x="260px" y="80px" /><rect fill="rgb(189,31,135)" height="21px" width="21px" x="280px" y="80px" /><rect fill="rgb(189,31,135)" height="21px" width="21px" x="300px" y="80px" /><rect fill="rgb(224,81,87)" height="21px" width="21px" x="320px" y="80px" /><rect fill="rgb(224,81,87)" height="21px" width="21px" x="340px" y="80px" /><rect fill="rgb(224,81,87)" height="21px" width="21px" x="360px" y="80px" /><rect fill="rgb(224,81,87)" height="21px" width="21px" x="380px" y="80px" /><rect fill="rgb(224,81,87)" height="21px" width="21px" x="400px" y="80px" /><rect fill="rgb(224,81,87)" height="21px" width="21px" x="420px" y="80px" /><rect fill="rgb(224,81,87)" height="21px" width="21px" x="440px" y="80px" /><rect fill="rgb(224,81,87)" height="21px" width="21px" x="460px" y="80px" /><rect fill="rgb(224,81,87)" height="21px" width="21px" x="480px" y="80px" /><rect fill="rgb(224,81,87)" height="21px" width="21px" x="500px" y="80px" /><rect fill="rgb(224,81,87)" height="21px" width="21px" x="520px" y="80px" /><rect fill="rgb(224,81,87)" height="21px" width="21px" x="540px" y="80px" /><rect fill="rgb(224,81,87)" height="21px" width="21px" x="560px" y="80px" /><rect fill="rgb(224,81,87)" height="21px" width="21px" x="580px" y="80px" /><rect fill="rgb(189,31,135)" height="21px" width="21px" x="600px" y="80px" /><rect fill="rgb(189,31,135)" height="21px" width="21px" x="620px" y="80px" /><rect fill="rgb(224,81,87)" height="21px" width="21px" x="0px" y="100px" /><rect fill="rgb(224,81,87)" height="21px" width="21px" x="20px" y="100px" /><rect fill="rgb(224,81,87)" height="21px" width="21px" x="40px" y="100px" /><rect fill="rgb(224,81,87)" height="21px" width="21px" x="60px" y="100px" /><rect fill="rgb(224,81,87)" height="21px" width="21px" x="80px" y="100px" /><rect fill="rgb(224,81,87)" height="21px" width="21px" x="100px" y="100px" /><rect fill="rgb(224,81,87)" height="21px" width="21px" x="120px" y="100px" /><rect fill="rgb(224,81,87)" height="21px" width="21px" x="140px" y="100px" /><rect fill="rgb(224,81,87)" height="21px" width="21px" x="160px" y="100px" /><rect fill="rgb(224,81,87)" height="21px" width="21px" x="180px" y="100px" /><rect fill="rgb(224,81,87)" height="21px" width="21px" x="200px" y="100px" /><rect fill="rgb(224,81,87)" height="21px" width="21px" x="220px" y="100px" /><rect fill="rgb(224,81,87)" height="21px" width="21px" x="240px" y="100px" /><rect fill="rgb(224,81,87)" height="21px" width="21px" x="260px" y="100px" /><rect fill="rgb(224,81,87)" height="21px" width="21px" x="280px" y="100px" /><rect fill="rgb(224,81,87)" height="21px" width="21px" x="300px" y="100px" /><rect fill="rgb(224,81,87)" height="21px" width="21px" x="320px" y="100px" /><rect fill="rgb(224,81,87)" height="21px" width="21px" x="340px" y="100px" /><rect fill="rgb(224,81,87)" height="21px" width="21px" x="360px" y="100px" /><rect fill="rgb(224,81,87)" height="21px" width="21px" x="380px" y="100px" /><rect fill="rgb(224,81,87)" height="21px" width="21px" x="400px" y="100px" /><rect fill="rgb(224,81,87)" height="21px" width="21px" x="420px" y="100px" /><rect fill="rgb(224,81,87)" height="21px" width="21px" x="440px" y="100px" /><rect fill="rgb(224,81,87)" height="21px" width="21px" x="460px" y="100px" /><rect fill="rgb(224,81,87)" height="21px" width="21px" x="480px" y="100px" /><rect fill="rgb(224,81,87)" height="21px" width="21px" x="500px" y="100px" /><rect fill="rgb(224,81,87)" height="21px" width="21px" x="520px" y="100px" /><rect fill="rgb(224,81,87)" height="21px" width="21px" x="540px" y="100px" /><rect fill="rgb(224,81,87)" height="21px" width="21px" x="560px" y="100px" /><rect fill="rgb(224,81,87)" height="21px" width="21px" x="580px" y="100px" /><rect fill="rgb(224,81,87)" height="21px" width="21px" x="600px" y="100px" /><rect fill="rgb(224,81,87)" height="21px" width="21px" x="620px" y="100px" /><rect fill="rgb(224,81,87)" height="21px" width="21px" x="0px" y="120px" /><rect fill="rgb(224,81,87)" height="21px" width="21px" x="20px" y="120px" /><rect fill="rgb(224,81,87)" height="21px" width="21px" x="40px" y="120px" /><rect fill="rgb(224,81,87)" height="21px" width="21px" x="60px" y="120px" /><rect fill="rgb(224,81,87)" height="21px" width="21px" x="80px" y="120px" /><rect fill="rgb(224,81,87)" height="21px" width="21px" x="100px" y="120px" /><rect fill="rgb(224,81,87)" height="21px" width="21px" x="120px" y="120px" /><rect fill="rgb(224,81,87)" height="21px" width="21px" x="140px" y="120px" /><rect fill="rgb(224,81,87)" height="21px" width="21px" x="160px" y="120px" /><rect fill="rgb(224,81,87)" height="21px" width="21px" x="180px" y="120px" /><rect fill="rgb(224,81,87)" height="21px" width="21px" x="200px" y="120px" /><rect fill="rgb(224,81,87)" height="21px" width="21px" x="220px" y="120px" /><rect fill="rgb(224,81,87)" height="21px" width="21px" x="240px" y="120px" /><rect fill="rgb(224,81,87)" height="21px" width="21px" x="260px" y="120px" /><rect fill="rgb(224,81,87)" height="21px" width="21px" x="280px" y="120px" /><rect fill="rgb(224,81,87)" height="21px" width="21px" x="300px" y="120px" /><rect fill="rgb(224,81,87)" height="21px" width="21px" x="320px" y="120px" /><rect fill="rgb(224,81,87)" height="21px" width="21px" x="340px" y="120px" /><rect fill="rgb(224,81,87)" height="21px" width="21px" x="360px" y="120px" /><rect fill="rgb(224,81,87)" height="21px" width="21px" x="380px" y="120px" /><rect fill="rgb(224,81,87)" height="21px" width="21px" x="400px" y="120px" /><rect fill="rgb(224,81,87)" height="21px" width="21px" x="420px" y="120px" /><rect fill="rgb(224,81,87)" height="21px" width="21px" x="440px" y="120px" /><rect fill="rgb(224,81,87)" height="21px" width="21px" x="460px" y="120px" /><rect fill="rgb(224,81,87)" height="21px" width="21px" x="480px" y="120px" /><rect fill="rgb(224,81,87)" height="21px" width="21px" x="500px" y="120px" /><rect fill="rgb(224,81,87)" height="21px" width="21px" x="520px" y="120px" /><rect fill="rgb(224,81,87)" height="21px" width="21px" x="540px" y="120px" /><rect fill="rgb(224,81,87)" height="21px" width="21px" x="560px" y="120px" /><rect fill="rgb(224,81,87)" height="21px" width="21px" x="580px" y="120px" /><rect fill="rgb(224,81,87)" height="21px" width="21px" x="600px" y="120px" /><rect fill="rgb(224,81,87)" height="21px" width="21px" x="620px" y="120px" /><rect fill="rgb(224,81,87)" height="21px" width="21px" x="0px" y="140px" /><rect fill="rgb(224,81,87)" height="21px" width="21px" x="20px" y="140px" /><rect fill="rgb(224,81,87)" height="21px" width="21px" x="40px" y="140px" /><rect fill="rgb(224,81,87)" height="21px" width="21px" x="60px" y="140px" /><rect fill="rgb(224,81,87)" height="21px" width="21px" x="80px" y="140px" /><rect fill="rgb(224,81,87)" height="21px" width="21px" x="100px" y="140px" /><rect fill="rgb(224,81,87)" height="21px" width="21px" x="120px" y="140px" /><rect fill="rgb(224,81,87)" height="21px" width="21px" x="140px" y="140px" /><rect fill="rgb(224,81,87)" height="21px" width="21px" x="160px" y="140px" /><rect fill="rgb(224,81,87)" height="21px" width="21px" x="180px" y="140px" /><rect fill="rgb(224,81,87)" height="21px" width="21px" x="200px" y="140px" /><rect fill="rgb(224,81,87)" height="21px" width="21px" x="220px" y="140px" /><rect fill="rgb(224,81,87)" height="21px" width="21px" x="240px" y="140px" /><rect fill="rgb(224,81,87)" height="21px" width="21px" x="260px" y="140px" /><rect fill="rgb(224,81,87)" height="21px" width="21px" x="280px" y="140px" /><rect fill="rgb(224,81,87)" height="21px" width="21px" x="300px" y="140px" /><rect fill="rgb(224,81,87)" height="21px" width="21px" x="320px" y="140px" /><rect fill="rgb(224,81,87)" height="21px" width="21px" x="340px" y="140px" /><rect fill="rgb(224,81,87)" height="21px" width="21px" x="360px" y="140px" /><rect fill="rgb(224,81,87)" height="21px" width="21px" x="380px" y="140px" /><rect fill="rgb(224,81,87)" height="21px" width="21px" x="400px" y="140px" /><rect fill="rgb(224,81,87)" height="21px" width="21px" x="420px" y="140px" /><rect fill="rgb(224,81,87)" height="21px" width="21px" x="440px" y="140px" /><rect fill="rgb(224,81,87)" height="21px" width="21px" x="460px" y="140px" /><rect fill="rgb(224,81,87)" height="21px" width="21px" x="480px" y="140px" /><rect fill="rgb(224,81,87)" height="21px" width="21px" x="500px" y="140px" /><rect fill="rgb(224,81,87)" height="21px" width="21px" x="520px" y="140px" /><rect fill="rgb(224,81,87)" height="21px" width="21px" x="540px" y="140px" /><rect fill="rgb(224,81,87)" height="21px" width="21px" x="560px" y="140px" /><rect fill="rgb(224,81,87)" height="21px" width="21px" x="580px" y="140px" /><rect fill="rgb(224,81,87)" height="21px" width="21px" x="600px" y="140px" /><rect fill="rgb(224,81,87)" height="21px" width="21px" x="620px" y="140px" /><rect fill="rgb(224,81,87)" height="21px" width="21px" x="0px" y="160px" /><rect fill="rgb(224,81,87)" height="21px" width="21px" x="20px" y="160px" /><rect fill="rgb(224,81,87)" height="21px" width="21px" x="40px" y="160px" /><rect fill="rgb(224,81,87)" height="21px" width="21px" x="60px" y="160px" /><rect fill="rgb(224,81,87)" height="21px" width="21px" x="80px" y="160px" /><rect fill="rgb(224,81,87)" height="21px" width="21px" x="100px" y="160px" /><rect fill="rgb(224,81,87)" height="21px" width="21px" x="120px" y="160px" /><rect fill="rgb(224,81,87)" height="21px" width="21px" x="140px" y="160px" /><rect fill="rgb(224,81,87)" height="21px" width="21px" x="160px" y="160px" /><rect fill="rgb(224,81,87)" height="21px" width="21px" x="180px" y="160px" /><rect fill="rgb(224,81,87)" height="21px" width="21px" x="200px" y="160px" /><rect fill="rgb(224,81,87)" height="21px" width="21px" x="220px" y="160px" /><rect fill="rgb(224,81,87)" height="21px" width="21px" x="240px" y="160px" /><rect fill="rgb(224,81,87)" height="21px" width="21px" x="260px" y="160px" /><rect fill="rgb(224,81,87)" height="21px" width="21px" x="280px" y="160px" /><rect fill="rgb(224,81,87)" height="21px" width="21px" x="300px" y="160px" /><rect fill="rgb(224,81,87)" height="21px" width="21px" x="320px" y="160px" /><rect fill="rgb(224,81,87)" height="21px" width="21px" x="340px" y="160px" /><rect fill="rgb(224,81,87)" height="21px" width="21px" x="360px" y="160px" /><rect fill="rgb(224,81,87)" height="21px" width="21px" x="380px" y="160px" /><rect fill="rgb(224,81,87)" height="21px" width="21px" x="400px" y="160px" /><rect fill="rgb(224,81,87)" height="21px" width="21px" x="420px" y="160px" /><rect fill="rgb(224,81,87)" height="21px" width="21px" x="440px" y="160px" /><rect fill="rgb(224,81,87)" height="21px" width="21px" x="460px" y="160px" /><rect fill="rgb(224,81,87)" height="21px" width="21px" x="480px" y="160px" /><rect fill="rgb(224,81,87)" height="21px" width="21px" x="500px" y="160px" /><rect fill="rgb(224,81,87)" height="21px" width="21px" x="520px" y="160px" /><rect fill="rgb(224,81,87)" height="21px" width="21px" x="540px" y="160px" /><rect fill="rgb(224,81,87)" height="21px" width="21px" x="560px" y="160px" /><rect fill="rgb(224,81,87)" height="21px" width="21px" x="580px" y="160px" /><rect fill="rgb(224,81,87)" height="21px" width="21px" x="600px" y="160px" /><rect fill="rgb(224,81,87)" height="21px" width="21px" x="620px" y="160px" /><rect fill="rgb(189,31,135)" height="21px" width="21px" x="0px" y="180px" /><rect fill="rgb(189,31,135)" height="21px" width="21px" x="20px" y="180px" /><rect fill="rgb(224,81,87)" height="21px" width="21px" x="40px" y="180px" /><rect fill="rgb(224,81,87)" height="21px" width="21px" x="60px" y="180px" /><rect fill="rgb(224,81,87)" height="21px" width="21px" x="80px" y="180px" /><rect fill="rgb(224,81,87)" height="21px" width="21px" x="100px" y="180px" /><rect fill="rgb(224,81,87)" height="21px" width="21px" x="120px" y="180px" /><rect fill="rgb(224,81,87)" height="21px" width="21px" x="140px" y="180px" /><rect fill="rgb(224,81,87)" height="21px" width="21px" x="160px" y="180px" /><rect fill="rgb(224,81,87)" height="21px" width="21px" x="180px" y="180px" /><rect fill="rgb(224,81,87)" height="21px" width="21px" x="200px" y="180px" /><rect fill="rgb(224,81,87)" height="21px" width="21px" x="220px" y="180px" /><rect fill="rgb(224,81,87)" height="21px" width="21px" x="240px" y="180px" /><rect fill="rgb(224,81,87)" height="21px" width="21px" x="260px" y="180px" /><rect fill="rgb(189,31,135)" height="21px" width="21px" x="280px" y="180px" /><rect fill="rgb(189,31,135)" height="21px" width="21px" x="300px" y="180px" /><rect fill="rgb(189,31,135)" height="21px" width="21px" x="320px" y="180px" /><rect fill="rgb(189,31,135)" height="21px" width="21px" x="340px" y="180px" /><rect fill="rgb(224,81,87)" height="21px" width="21px" x="360px" y="180px" /><rect fill="rgb(224,81,87)" height="21px" width="21px" x="380px" y="180px" /><rect fill="rgb(224,81,87)" height="21px" width="21px" x="400px" y="180px" /><rect fill="rgb(224,81,87)" height="21px" width="21px" x="420px" y="180px" /><rect fill="rgb(224,81,87)" height="21px" width="21px" x="440px" y="180px" /><rect fill="rgb(224,81,87)" height="21px" width="21px" x="460px" y="180px" /><rect fill="rgb(224,81,87)" height="21px" width="21px" x="480px" y="180px" /><rect fill="rgb(224,81,87)" height="21px" width="21px" x="500px" y="180px" /><rect fill="rgb(224,81,87)" height="21px" width="21px" x="520px" y="180px" /><rect fill="rgb(224,81,87)" height="21px" width="21px" x="540px" y="180px" /><rect fill="rgb(224,81,87)" height="21px" width="21px" x="560px" y="180px" /><rect fill="rgb(224,81,87)" height="21px" width="21px" x="580px" y="180px" /><rect fill="rgb(189,31,135)" height="21px" width="21px" x="600px" y="180px" /><rect fill="rgb(189,31,135)" height="21px" width="21px" x="620px" y="180px" /><rect fill="rgb(189,31,135)" height="21px" width="21px" x="0px" y="200px" /><rect fill="rgb(189,31,135)" height="21px" width="21px" x="20px" y="200px" /><rect fill="rgb(224,81,87)" height="21px" width="21px" x="40px" y="200px" /><rect fill="rgb(224,81,87)" height="21px" width="21px" x="60px" y="200px" /><rect fill="rgb(224,81,87)" height="21px" width="21px" x="80px" y="200px" /><rect fill="rgb(224,81,87)" height="21px" width="21px" x="100px" y="200px" /><rect fill="rgb(224,81,87)" height="21px" width="21px" x="120px" y="200px" /><rect fill="rgb(224,81,87)" height="21px" width="21px" x="140px" y="200px" /><rect fill="rgb(224,81,87)" height="21px" width="21px" x="160px" y="200px" /><rect fill="rgb(224,81,87)" height="21px" width="21px" x="180px" y="200px" /><rect fill="rgb(224,81,87)" height="21px" width="21px" x="200px" y="200px" /><rect fill="rgb(224,81,87)" height="21px" width="21px" x="220px" y="200px" /><rect fill="rgb(224,81,87)" height="21px" width="21px" x="240px" y="200px" /><rect fill="rgb(224,81,87)" height="21px" width="21px" x="260px" y="200px" /><rect fill="rgb(189,31,135)" height="21px" width="21px" x="280px" y="200px" /><rect fill="rgb(189,31,135)" height="21px" width="21px" x="300px" y="200px" /><rect fill="rgb(189,31,135)" height="21px" width="21px" x="320px" y="200px" /><rect fill="rgb(189,31,135)" height="21px" width="21px" x="340px" y="200px" /><rect fill="rgb(224,81,87)" height="21px" width="21px" x="360px" y="200px" /><rect fill="rgb(224,81,87)" height="21px" width="21px" x="380px" y="200px" /><rect fill="rgb(224,81,87)" height="21px" width="21px" x="400px" y="200px" /><rect fill="rgb(224,81,87)" height="21px" width="21px" x="420px" y="200px" /><rect fill="rgb(224,81,87)" height="21px" width="21px" x="440px" y="200px" /><rect fill="rgb(224,81,87)" height="21px" width="21px" x="460px" y="200px" /><rect fill="rgb(224,81,87)" height="21px" width="21px" x="480px" y="200px" /><rect fill="rgb(224,81,87)" height="21px" width="21px" x="500px" y="200px" /><rect fill="rgb(224,81,87)" height="21px" width="21px" x="520px" y="200px" /><rect fill="rgb(224,81,87)" height="21px" width="21px" x="540px" y="200px" /><rect fill="rgb(224,81,87)" height="21px" width="21px" x="560px" y="200px" /><rect fill="rgb(224,81,87)" height="21px" width="21px" x="580px" y="200px" /><rect fill="rgb(189,31,135)" height="21px" width="21px" x="600px" y="200px" /><rect fill="rgb(189,31,135)" height="21px" width="21px" x="620px" y="200px" /><rect fill="rgb(224,81,87)" height="21px" width="21px" x="40px" y="220px" /><rect fill="rgb(224,81,87)" height="21px" width="21px" x="60px" y="220px" /><rect fill="rgb(189,31,135)" height="21px" width="21px" x="80px" y="220px" /><rect fill="rgb(189,31,135)" height="21px" width="21px" x="100px" y="220px" /><rect fill="rgb(224,81,87)" height="21px" width="21px" x="120px" y="220px" /><rect fill="rgb(224,81,87)" height="21px" width="21px" x="140px" y="220px" /><rect fill="rgb(224,81,87)" height="21px" width="21px" x="160px" y="220px" /><rect fill="rgb(224,81,87)" height="21px" width="21px" x="180px" y="220px" /><rect fill="rgb(189,31,135)" height="21px" width="21px" x="200px" y="220px" /><rect fill="rgb(189,31,135)" height="21px" width="21px" x="220px" y="220px" /><rect fill="rgb(224,81,87)" height="21px" width="21px" x="240px" y="220px" /><rect fill="rgb(224,81,87)" height="21px" width="21px" x="260px" y="220px" /><rect fill="rgb(224,81,87)" height="21px" width="21px" x="360px" y="220px" /><rect fill="rgb(224,81,87)" height="21px" width="21px" x="380px" y="220px" /><rect fill="rgb(189,31,135)" height="21px" width="21px" x="400px" y="220px" /><rect fill="rgb(189,31,135)" height="21px" width="21px" x="420px" y="220px" /><rect fill="rgb(224,81,87)" height="21px" width="21px" x="440px" y="220px" /><rect fill="rgb(224,81,87)" height="21px" width="21px" x="460px" y="220px" /><rect fill="rgb(224,81,87)" height="21px" width="21px" x="480px" y="220px" /><rect fill="rgb(224,81,87)" height="21px" width="21px" x="500px" y="220px" /><rect fill="rgb(189,31,135)" height="21px" width="21px" x="520px" y="220px" /><rect fill="rgb(189,31,135)" height="21px" width="21px" x="540px" y="220px" /><rect fill="rgb(224,81,87)" height="21px" width="21px" x="560px" y="220px" /><rect fill="rgb(224,81,87)" height="21px" width="21px" x="580px" y="220px" /><rect fill="rgb(189,31,135)" height="21px" width="21px" x="0px" y="240px" /><rect fill="rgb(189,31,135)" height="21px" width="21px" x="20px" y="240px" /><rect fill="rgb(224,81,87)" height="21px" width="21px" x="40px" y="240px" /><rect fill="rgb(224,81,87)" height="21px" width="21px" x="60px" y="240px" /><rect fill="rgb(189,31,135)" height="21px" width="21px" x="80px" y="240px" /><rect fill="rgb(189,31,135)" height="21px" width="21px" x="100px" y="240px" /><rect fill="rgb(189,31,135)" height="21px" width="21px" x="120px" y="240px" /><rect fill="rgb(189,31,135)" height="21px" width="21px" x="140px" y="240px" /><rect fill="rgb(224,81,87)" height="21px" width="21px" x="160px" y="240px" /><rect fill="rgb(224,81,87)" height="21px" width="21px" x="180px" y="240px" /><rect fill="rgb(189,31,135)" height="21px" width="21px" x="200px" y="240px" /><rect fill="rgb(189,31,135)" height="21px" width="21px" x="220px" y="240px" /><rect fill="rgb(224,81,87)" height="21px" width="21px" x="240px" y="240px" /><rect fill="rgb(224,81,87)" height="21px" width="21px" x="260px" y="240px" /><rect fill="rgb(189,31,135)" height="21px" width="21px" x="280px" y="240px" /><rect fill="rgb(189,31,135)" height="21px" width="21px" x="300px" y="240px" /><rect fill="rgb(224,81,87)" height="21px" width="21px" x="320px" y="240px" /><rect fill="rgb(224,81,87)" height="21px" width="21px" x="340px" y="240px" /><rect fill="rgb(189,31,135)" height="21px" width="21px" x="360px" y="240px" /><rect fill="rgb(189,31,135)" height="21px" width="21px" x="380px" y="240px" /><rect fill="rgb(189,31,135)" height="21px" width="21px" x="400px" y="240px" /><rect fill="rgb(189,31,135)" height="21px" width="21px" x="420px" y="240px" /><rect fill="rgb(224,81,87)" height="21px" width="21px" x="440px" y="240px" /><rect fill="rgb(224,81,87)" height="21px" width="21px" x="460px" y="240px" /><rect fill="rgb(189,31,135)" height="21px" width="21px" x="480px" y="240px" /><rect fill="rgb(189,31,135)" height="21px" width="21px" x="500px" y="240px" /><rect fill="rgb(189,31,135)" height="21px" width="21px" x="520px" y="240px" /><rect fill="rgb(189,31,135)" height="21px" width="21px" x="540px" y="240px" /><rect fill="rgb(189,31,135)" height="21px" width="21px" x="560px" y="240px" /><rect fill="rgb(189,31,135)" height="21px" width="21px" x="580px" y="240px" /><rect fill="rgb(224,81,87)" height="21px" width="21px" x="600px" y="240px" /><rect fill="rgb(224,81,87)" height="21px" width="21px" x="620px" y="240px" /><rect fill="rgb(189,31,135)" height="21px" width="21px" x="0px" y="260px" /><rect fill="rgb(189,31,135)" height="21px" width="21px" x="20px" y="260px" /><rect fill="rgb(224,81,87)" height="21px" width="21px" x="40px" y="260px" /><rect fill="rgb(224,81,87)" height="21px" width="21px" x="60px" y="260px" /><rect fill="rgb(189,31,135)" height="21px" width="21px" x="120px" y="260px" /><rect fill="rgb(189,31,135)" height="21px" width="21px" x="140px" y="260px" /><rect fill="rgb(224,81,87)" height="21px" width="21px" x="160px" y="260px" /><rect fill="rgb(224,81,87)" height="21px" width="21px" x="180px" y="260px" /><rect fill="rgb(224,81,87)" height="21px" width="21px" x="240px" y="260px" /><rect fill="rgb(224,81,87)" height="21px" width="21px" x="260px" y="260px" /><rect fill="rgb(189,31,135)" height="21px" width="21px" x="280px" y="260px" /><rect fill="rgb(189,31,135)" height="21px" width="21px" x="300px" y="260px" /><rect fill="rgb(224,81,87)" height="21px" width="21px" x="320px" y="260px" /><rect fill="rgb(224,81,87)" height="21px" width="21px" x="340px" y="260px" /><rect fill="rgb(189,31,135)" height="21px" width="21px" x="360px" y="260px" /><rect fill="rgb(189,31,135)" height="21px" width="21px" x="380px" y="260px" /><rect fill="rgb(224,81,87)" height="21px" width="21px" x="440px" y="260px" /><rect fill="rgb(224,81,87)" height="21px" width="21px" x="460px" y="260px" /><rect fill="rgb(189,31,135)" height="21px" width="21px" x="480px" y="260px" /><rect fill="rgb(189,31,135)" height="21px" width="21px" x="500px" y="260px" /><rect fill="rgb(189,31,135)" height="21px" width="21px" x="560px" y="260px" /><rect fill="rgb(189,31,135)" height="21px" width="21px" x="580px" y="260px" /><rect fill="rgb(224,81,87)" height="21px" width="21px" x="600px" y="260px" /><rect fill="rgb(224,81,87)" height="21px" width="21px" x="620px" y="260px" /><rect fill="rgb(224,81,87)" height="21px" width="21px" x="40px" y="280px" /><rect fill="rgb(224,81,87)" height="21px" width="21px" x="60px" y="280px" /><rect fill="rgb(224,81,87)" height="21px" width="21px" x="160px" y="280px" /><rect fill="rgb(224,81,87)" height="21px" width="21px" x="180px" y="280px" /><rect fill="rgb(224,81,87)" height="21px" width="21px" x="240px" y="280px" /><rect fill="rgb(224,81,87)" height="21px" width="21px" x="260px" y="280px" /><rect fill="rgb(224,81,87)" height="21px" width="21px" x="320px" y="280px" /><rect fill="rgb(224,81,87)" height="21px" width="21px" x="340px" y="280px" /><rect fill="rgb(224,81,87)" height="21px" width="21px" x="440px" y="280px" /><rect fill="rgb(224,81,87)" height="21px" width="21px" x="460px" y="280px" /><rect fill="rgb(224,81,87)" height="21px" width="21px" x="600px" y="280px" /><rect fill="rgb(224,81,87)" height="21px" width="21px" x="620px" y="280px" /><rect fill="rgb(224,81,87)" height="21px" width="21px" x="40px" y="300px" /><rect fill="rgb(224,81,87)" height="21px" width="21px" x="60px" y="300px" /><rect fill="rgb(224,81,87)" height="21px" width="21px" x="160px" y="300px" /><rect fill="rgb(224,81,87)" height="21px" width="21px" x="180px" y="300px" /><rect fill="rgb(224,81,87)" height="21px" width="21px" x="240px" y="300px" /><rect fill="rgb(224,81,87)" height="21px" width="21px" x="260px" y="300px" /><rect fill="rgb(224,81,87)" height="21px" width="21px" x="320px" y="300px" /><rect fill="rgb(224,81,87)" height="21px" width="21px" x="340px" y="300px" /><rect fill="rgb(224,81,87)" height="21px" width="21px" x="440px" y="300px" /><rect fill="rgb(224,81,87)" height="21px" width="21px" x="460px" y="300px" /><rect fill="rgb(224,81,87)" height="21px" width="21px" x="600px" y="300px" /><rect fill="rgb(224,81,87)" height="21px" width="21px" x="620px" y="300px" /></svg>