<?xml version="1.0" encoding="utf-8" ?>
<svg shape-rendering="optimizeSpeed" baseProfile="full" height="640px" version="1.1" width="1280px" xmlns="http://www.w3.org/2000/svg" xmlns:ev="http://www.w3.org/2001/xml-events" xmlns:xlink="http://www.w3.org/1999/xlink"><defs /><rect fill="rgb(224,81,87)" height="41px" width="41px" x="0px" y="0px" /><rect fill="rgb(224,81,87)" height="41px" width="41px" x="40px" y="0px" /><rect fill="rgb(189,31,135)" height="41px" width="41px" x="240px" y="0px" /><rect fill="rgb(189,31,135)" height="41px" width="41px" x="280px" y="0px" /><rect fill="rgb(189,31,135)" height="41px" width="41px" x="320px" y="0px" /><rect fill="rgb(189,31,135)" height="41px" width="41px" x="360px" y="0px" /><rect fill="rgb(224,81,87)" height="41px" width="41px" x="560px" y="0px" /><rect fill="rgb(224,81,87)" height="41px" width="41px" x="600px" y="0px" /><rect fill="rgb(224,81,87)" height="41px" width="41px" x="640px" y="0px" /><rect fill="rgb(224,81,87)" height="41px" width="41px" x="680px" y="0px" /><rect fill="rgb(189,31,135)" height="41px" width="41px" x="880px" y="0px" /><rect fill="rgb(189,31,135)" height="41px" width="41px" x="920px" y="0px" /><rect fill="rgb(189,31,135)" height="41px" width="41px" x="960px" y="0px" /><rect fill="rgb(189,31,135)" height="41px" width="41px" x="1000px" y="0px" /><rect fill="rgb(224,81,87)" height="41px" width="41px" x="1200px" y="0px" /><rect fill="rgb(224,81,87)" height="41px" width="41px" x="1240px" y="0px" /><rect fill="rgb(189,31,135)" height="41px" width="41px" x="0px" y="40px" /><rect fill="rgb(189,31,135)" height="41px" width="41px" x="40px" y="40px" /><rect fill="rgb(189,31,135)" height="41px" width="41px" x="160px" y="40px" /><rect fill="rgb(189,31,135)" height="41px" width="41px" x="200px" y="40px" /><rect fill="rgb(224,81,87)" height="41px" width="41px" x="240px" y="40px" /><rect fill="rgb(224,81,87)" height="41px" width="41px" x="280px" y="40px" /><rect fill="rgb(224,81,87)" height="41px" width="41px" x="320px" y="40px" /><rect fill="rgb(224,81,87)" height="41px" width="41px" x="360px" y="40px" /><rect fill="rgb(189,31,135)" height="41px" width="41px" x="400px" y="40px" /><rect fill="rgb(189,31,135)" height="41px" width="41px" x="440px" y="40px" /><rect fill="rgb(189,31,135)" height="41px" width="41px" x="560px" y="40px" /><rect fill="rgb(189,31,135)" height="41px" width="41px" x="600px" y="40px" /><rect fill="rgb(189,31,135)" height="41px" width="41px" x="640px" y="40px" /><rect fill="rgb(189,31,135)" height="41px" width="41px" x="680px" y="40px" /><rect fill="rgb(189,31,135)" height="41px" width="41px" x="800px" y="40px" /><rect fill="rgb(189,31,135)" height="41px" width="41px" x="840px" y="40px" /><rect fill="rgb(224,81,87)" height="41px" width="41px" x="880px" y="40px" /><rect fill="rgb(224,81,87)" height="41px" width="41px" x="920px" y="40px" /><rect fill="rgb(224,81,87)" height="41px" width="41px" x="960px" y="40px" /><rect fill="rgb(224,81,87)" height="41px" width="41px" x="1000px" y="40px" /><rect fill="rgb(189,31,135)" height="41px" width="41px" x="1040px" y="40px" /><rect fill="rgb(189,31,135)" height="41px" width="41px" x="1080px" y="40px" /><rect fill="rgb(189,31,135)" height="41px" width="41px" x="1200px" y="40px" /><rect fill="rgb(189,31,135)" height="41px" width="41px" x="1240px" y="40px" /><rect fill="rgb(224,81,87)" height="41px" width="41px" x="80px" y="80px" /><rect fill="rgb(224,81,87)" height="41px" width="41px" x="120px" y="80px" /><rect fill="rgb(224,81,87)" height="41px" width="41px" x="160px" y="80px" /><rect fill="rgb(224,81,87)" height="41px" width="41px" x="200px" y="80px" /><rect fill="rgb(224,81,87)" height="41px" width="41px" x="240px" y="80px" /><rect fill="rgb(224,81,87)" height="41px" width="41px" x="280px" y="80px" /><rect fill="rgb(224,81,87)" height="41px" width="41px" x="320px" y="80px" /><rect fill="rgb(224,81,87)" height="41px" width="41px" x="360px" y="80px" /><rect fill="rgb(224,81,87)" height="41px" width="41px" x="400px" y="80px" /><rect fill="rgb(224,81,87)" height="41px" width="41px" x="440px" y="80px" /><rect fill="rgb(189,31,135)" height="41px" width="41px" x="480px" y="80px" /><rect fill="rgb(189,31,135)" height="41px" width="41px" x="520px" y="80px" /><rect fill="rgb(224,81,87)" height="41px" width="41px" x="720px" y="80px" /><rect fill="rgb(224,81,87)" height="41px" width="41px" x="760px" y="80px" /><rect fill="rgb(224,81,87)" height="41px" width="41px" x="800px" y="80px" /><rect fill="rgb(224,81,87)" height="41px" width="41px" x="840px" y="80px" /><rect fill="rgb(224,81,87)" height="41px" width="41px" x="880px" y="80px" /><rect fill="rgb(224,81,87)" height="41px" width="41px" x="920px" y="80px" /><rect fill="rgb(224,81,87)" height="41px" width="41px" x="960px" y="80px" /><rect fill="rgb(224,81,87)" height="41px" width="41px" x="1000px" y="80px" /><rect fill="rgb(224,81,87)" height="41px" width="41px" x="1040px" y="80px" /><rect fill="rgb(224,81,87)" height="41px" width="41px" x="1080px" y="80px" /><rect fill="rgb(189,31,135)" height="41px" width="41px" x="1120px" y="80px" /><rect fill="rgb(189,31,135)" height="41px" width="41px" x="1160px" y="80px" /><rect fill="rgb(224,81,87)" height="41px" width="41px" x="80px" y="120px" /><rect fill="rgb(224,81,87)" height="41px" width="41px" x="120px" y="120px" /><rect fill="rgb(224,81,87)" height="41px" width="41px" x="160px" y="120px" /><rect fill="rgb(224,81,87)" height="41px" width="41px" x="200px" y="120px" /><rect fill="rgb(224,81,87)" height="41px" width="41px" x="240px" y="120px" /><rect fill="rgb(224,81,87)" height="41px" width="41px" x="280px" y="120px" /><rect fill="rgb(224,81,87)" height="41px" width="41px" x="320px" y="120px" /><rect fill="rgb(224,81,87)" height="41px" width="41px" x="360px" y="120px" /><rect fill="rgb(224,81,87)" height="41px" width="41px" x="400px" y="120px" /><rect fill="rgb(224,81,87)" height="41px" width="41px" x="440px" y="120px" /><rect fill="rgb(224,81,87)" height="41px" width="41px" x="480px" y="120px" /><rect fill="rgb(224,81,87)" height="41px" width="41px" x="520px" y="120px" /><rect fill="rgb(224,81,87)" height="41px" width="41px" x="720px" y="120px" /><rect fill="rgb(224,81,87)" height="41px" width="41px" x="760px" y="120px" /><rect fill="rgb(224,81,87)" height="41px" width="41px" x="800px" y="120px" /><rect fill="rgb(224,81,87)" height="41px" width="41px" x="840px" y="120px" /><rect fill="rgb(224,81,87)" height="41px" width="41px" x="880px" y="120px" /><rect fill="rgb(224,81,87)" height="41px" width="41px" x="920px" y="120px" /><rect fill="rgb(224,81,87)" height="41px" width="41px" x="960px" y="120px" /><rect fill="rgb(224,81,87)" height="41px" width="41px" x="1000px" y="120px" /><rect fill="rgb(224,81,87)" height="41px" width="41px" x="1040px" y="120px" /><rect fill="rgb(224,81,87)" height="41px" width="41px" x="1080px" y="120px" /><rect fill="rgb(224,81,87)" height="41px" width="41px" x="1120px" y="120px" /><rect fill="rgb(224,81,87)" height="41px" width="41px" x="1160px" y="120px" /><rect fill="rgb(224,81,87)" height="41px" width="41px" x="0px" y="160px" /><rect fill="rgb(224,81,87)" height="41px" width="41px" x="40px" y="160px" /><rect fill="rgb(224,81,87)" height="41px" width="41px" x="80px" y="160px" /><rect fill="rgb(224,81,87)" height="41px" width="41px" x="120px" y="160px" /><rect fill="rgb(224,81,87)" height="41px" width="41px" x="160px" y="160px" /><rect fill="rgb(224,81,87)" height="41px" width="41px" x="200px" y="160px" /><rect fill="rgb(224,81,87)" height="41px" width="41px" x="240px" y="160px" /><rect fill="rgb(224,81,87)" height="41px" width="41px" x="280px" y="160px" /><rect fill="rgb(224,81,87)" height="41px" width="41px" x="320px" y="160px" /><rect fill="rgb(224,81,87)" height="41px" width="41px" x="360px" y="160px" /><rect fill="rgb(224,81,87)" height="41px" width="41px" x="400px" y="160px" /><rect fill="rgb(224,81,87)" height="41px" width="41px" x="440px" y="160px" /><rect fill="rgb(224,81,87)" height="41px" width="41px" x="480px" y="160px" /><rect fill="rgb(224,81,87)" height="41px" width="41px" x="520px" y="160px" /><rect fill="rgb(189,31,135)" height="41px" width="41px" x="560px" y="160px" /><rect fill="rgb(189,31,135)" height="41px" width="41px" x="600px" y="160px" /><rect fill="rgb(224,81,87)" height="41px" width="41px" x="640px" y="160px" /><rect fill="rgb(224,81,87)" height="41px" width="41px" x="680px" y="160px" /><rect fill="rgb(224,81,87)" height="41px" width="41px" x="720px" y="160px" /><rect fill="rgb(224,81,87)" height="41px" width="41px" x="760px" y="160px" /><rect fill="rgb(224,81,87)" height="41px" width="41px" x="800px" y="160px" /><rect fill="rgb(224,81,87)" height="41px" width="41px" x="840px" y="160px" /><rect fill="rgb(224,81,87)" height="41px" width="41px" x="880px" y="160px" /><rect fill="rgb(224,81,87)" height="41px" width="41px" x="920px" y="160px" /><rect fill="rgb(224,81,87)" height="41px" width="41px" x="960px" y="160px" /><rect fill="rgb(224,81,87)" height="41px" width="41px" x="1000px" y="160px" /><rect fill="rgb(224,81,87)" height="41px" width="41px" x="1040px" y="160px" /><rect fill="rgb(224,81,87)" height="41px" width="41px" x="1080px" y="160px" /><rect fill="rgb(224,81,87)" height="41px" width="41px" x="1120px" y="160px" /><rect fill="rgb(224,81,87)" height="41px" width="41px" x="1160px" y="160px" /><rect fill="rgb(189,31,135)" height="41px" width="41px" x="1200px" y="160px" /><rect fill="rgb(189,31,135)" height="41px" width="41px" x="1240px" y="160px" /><rect fill="rgb(224,81,87)" height="41px" width="41px" x="0px" y="200px" /><rect fill="rgb(224,81,87)" height="41px" width="41px" x="40px" y="200px" /><rect fill="rgb(224,81,87)" height="41px" width="41px" x="80px" y="200px" /><rect fill="rgb(224,81,87)" height="41px" width="41px" x="120px" y="200px" /><rect fill="rgb(224,81,87)" height="41px" width="41px" x="160px" y="200px" /><rect fill="rgb(224,81,87)" height="41px" width="41px" x="200px" y="200px" /><rect fill="rgb(224,81,87)" height="41px" width="41px" x="240px" y="200px" /><rect fill="rgb(224,81,87)" height="41px" width="41px" x="280px" y="200px" /><rect fill="rgb(224,81,87)" height="41px" width="41px" x="320px" y="200px" /><rect fill="rgb(224,81,87)" height="41px" width="41px" x="360px" y="200px" /><rect fill="rgb(224,81,87)" height="41px" width="41px" x="400px" y="200px" /><rect fill="rgb(224,81,87)" height="41px" width="41px" x="440px" y="200px" /><rect fill="rgb(224,81,87)" height="41px" width="41px" x="480px" y="200px" /><rect fill="rgb(224,81,87)" height="41px" width="41px" x="520px" y="200px" /><rect fill="rgb(224,81,87)" height="41px" width="41px" x="560px" y="200px" /><rect fill="rgb(224,81,87)" height="41px" width="41px" x="600px" y="200px" /><rect fill="rgb(224,81,87)" height="41px" width="41px" x="640px" y="200px" /><rect fill="rgb(224,81,87)" height="41px" width="41px" x="680px" y="200px" /><rect fill="rgb(224,81,87)" height="41px" width="41px" x="720px" y="200px" /><rect fill="rgb(224,81,87)" height="41px" width="41px" x="760px" y="200px" /><rect fill="rgb(224,81,87)" height="41px" width="41px" x="800px" y="200px" /><rect fill="rgb(224,81,87)" height="41px" width="41px" x="840px" y="200px" /><rect fill="rgb(224,81,87)" height="41px" width="41px" x="880px" y="200px" /><rect fill="rgb(224,81,87)" height="41px" width="41px" x="920px" y="200px" /><rect fill="rgb(224,81,87)" height="41px" width="41px" x="960px" y="200px" /><rect fill="rgb(224,81,87)" height="41px" width="41px" x="1000px" y="200px" /><rect fill="rgb(224,81,87)" height="41px" width="41px" x="1040px" y="200px" /><rect fill="rgb(224,81,87)" height="41px" width="41px" x="1080px" y="200px" /><rect fill="rgb(224,81,87)" height="41px" width="41px" x="1120px" y="200px" /><rect fill="rgb(224,81,87)" height="41px" width="41px" x="1160px" y="200px" /><rect fill="rgb(224,81,87)" height="41px" width="41px" x="1200px" y="200px" /><rect fill="rgb(224,81,87)" height="41px" width="41px" x="1240px" y="200px" /><rect fill="rgb(224,81,87)" height="41px" width="41px" x="0px" y="240px" /><rect fill="rgb(224,81,87)" height="41px" width="41px" x="40px" y="240px" /><rect fill="rgb(224,81,87)" height="41px" width="41px" x="80px" y="240px" /><rect fill="rgb(224,81,87)" height="41px" width="41px" x="120px" y="240px" /><rect fill="rgb(224,81,87)" height="41px" width="41px" x="160px" y="240px" /><rect fill="rgb(224,81,87)" height="41px" width="41px" x="200px" y="240px" /><rect fill="rgb(224,81,87)" height="41px" width="41px" x="240px" y="240px" /><rect fill="rgb(224,81,87)" height="41px" width="41px" x="280px" y="240px" /><rect fill="rgb(224,81,87)" height="41px" width="41px" x="320px" y="240px" /><rect fill="rgb(224,81,87)" height="41px" width="41px" x="360px" y="240px" /><rect fill="rgb(224,81,87)" height="41px" width="41px" x="400px" y="240px" /><rect fill="rgb(224,81,87)" height="41px" width="41px" x="440px" y="240px" /><rect fill="rgb(224,81,87)" height="41px" width="41px" x="480px" y="240px" /><rect fill="rgb(224,81,87)" height="41px" width="41px" x="520px" y="240px" /><rect fill="rgb(224,81,87)" height="41px" width="41px" x="560px" y="240px" /><rect fill="rgb(224,81,87)" height="41px" width="41px" x="600px" y="240px" /><rect fill="rgb(224,81,87)" height="41px" width="41px" x="640px" y="240px" /><rect fill="rgb(224,81,87)" height="41px" width="41px" x="680px" y="240px" /><rect fill="rgb(224,81,87)" height="41px" width="41px" x="720px" y="240px" /><rect fill="rgb(224,81,87)" height="41px" width="41px" x="760px" y="240px" /><rect fill="rgb(224,81,87)" height="41px" width="41px" x="800px" y="240px" /><rect fill="rgb(224,81,87)" height="41px" width="41px" x="840px" y="240px" /><rect fill="rgb(224,81,87)" height="41px" width="41px" x="880px" y="240px" /><rect fill="rgb(224,81,87)" height="41px" width="41px" x="920px" y="240px" /><rect fill="rgb(224,81,87)" height="41px" width="41px" x="960px" y="240px" /><rect fill="rgb(224,81,87)" height="41px" width="41px" x="1000px" y="240px" /><rect fill="rgb(224,81,87)" height="41px" width="41px" x="1040px" y="240px" /><rect fill="rgb(224,81,87)" height="41px" width="41px" x="1080px" y="240px" /><rect fill="rgb(224,81,87)" height="41px" width="41px" x="1120px" y="240px" /><rect fill="rgb(224,81,87)" height="41px" width="41px" x="1160px" y="240px" /><rect fill="rgb(224,81,87)" height="41px" width="41px" x="1200px" y="240px" /><rect fill="rgb(224,81,87)" height="41px" width="41px" x="1240px" y="240px" /><rect fill="rgb(224,81,87)" height="41px" width="41px" x="0px" y="280px" /><rect fill="rgb(224,81,87)" height="41px" width="41px" x="40px" y="280px" /><rect fill="rgb(224,81,87)" height="41px" width="41px" x="80px" y="280px" /><rect fill="rgb(224,81,87)" height="41px" width="41px" x="120px" y="280px" /><rect fill="rgb(224,81,87)" height="41px" width="41px" x="160px" y="280px" /><rect fill="rgb(224,81,87)" height="41px" width="41px" x="200px" y="280px" /><rect fill="rgb(224,81,87)" height="41px" width="41px" x="240px" y="280px" /><rect fill="rgb(224,81,87)" height="41px" width="41px" x="280px" y="280px" /><rect fill="rgb(224,81,87)" height="41px" width="41px" x="320px" y="280px" /><rect fill="rgb(224,81,87)" height="41px" width="41px" x="360px" y="280px" /><rect fill="rgb(224,81,87)" height="41px" width="41px" x="400px" y="280px" /><rect fill="rgb(224,81,87)" height="41px" width="41px" x="440px" y="280px" /><rect fill="rgb(224,81,87)" height="41px" width="41px" x="480px" y="280px" /><rect fill="rgb(224,81,87)" height="41px" width="41px" x="520px" y="280px" /><rect fill="rgb(224,81,87)" height="41px" width="41px" x="560px" y="280px" /><rect fill="rgb(224,81,87)" height="41px" width="41px" x="600px" y="280px" /><rect fill="rgb(224,81,87)" height="41px" width="41px" x="640px" y="280px" /><rect fill="rgb(224,81,87)" height="41px" width="41px" x="680px" y="280px" /><rect fill="rgb(224,81,87)" height="41px" width="41px" x="720px" y="280px" /><rect fill="rgb(224,81,87)" height="41px" width="41px" x="760px" y="280px" /><rect fill="rgb(224,81,87)" height="41px" width="41px" x="800px" y="280px" /><rect fill="rgb(224,81,87)" height="41px" width="41px" x="840px" y="280px" /><rect fill="rgb(224,81,87)" height="41px" width="41px" x="880px" y="280px" /><rect fill="rgb(224,81,87)" height="41px" width="41px" x="920px" y="280px" /><rect fill="rgb(224,81,87)" height="41px" width="41px" x="960px" y="280px" /><rect fill="rgb(224,81,87)" height="41px" width="41px" x="1000px" y="280px" /><rect fill="rgb(224,81,87)" height="41px" width="41px" x="1040px" y="280px" /><rect fill="rgb(224,81,87)" height="41px" width="41px" x="1080px" y="280px" /><rect fill="rgb(224,81,87)" height="41px" width="41px" x="1120px" y="280px" /><rect fill="rgb(224,81,87)" height="41px" width="41px" x="1160px" y="280px" /><rect fill="rgb(224,81,87)" height="41px" width="41px" x="1200px" y="280px" /><rect fill="rgb(224,81,87)" height="41px" width="41px" x="1240px" y="280px" /><rect fill="rgb(224,81,87)" height="41px" width="41px" x="0px" y="320px" /><rect fill="rgb(224,81,87)" height="41px" width="41px" x="40px" y="320px" /><rect fill="rgb(224,81,87)" height="41px" width="41px" x="80px" y="320px" /><rect fill="rgb(224,81,87)" height="41px" width="41px" x="120px" y="320px" /><rect fill="rgb(224,81,87)" height="41px" width="41px" x="160px" y="320px" /><rect fill="rgb(224,81,87)" height="41px" width="41px" x="200px" y="320px" /><rect fill="rgb(224,81,87)" height="41px" width="41px" x="240px" y="320px" /><rect fill="rgb(224,81,87)" height="41px" width="41px" x="280px" y="320px" /><rect fill="rgb(224,81,87)" height="41px" width="41px" x="320px" y="320px" /><rect fill="rgb(224,81,87)" height="41px" width="41px" x="360px" y="320px" /><rect fill="rgb(224,81,87)" height="41px" width="41px" x="400px" y="320px" /><rect fill="rgb(224,81,87)" height="41px" width="41px" x="440px" y="320px" /><rect fill="rgb(224,81,87)" height="41px" width="41px" x="480px" y="320px" /><rect fill="rgb(224,81,87)" height="41px" width="41px" x="520px" y="320px" /><rect fill="rgb(224,81,87)" height="41px" width="41px" x="560px" y="320px" /><rect fill="rgb(224,81,87)" height="41px" width="41px" x="600px" y="320px" /><rect fill="rgb(224,81,87)" height="41px" width="41px" x="640px" y="320px" /><rect fill="rgb(224,81,87)" height="41px" width="41px" x="680px" y="320px" /><rect fill="rgb(224,81,87)" height="41px" width="41px" x="720px" y="320px" /><rect fill="rgb(224,81,87)" height="41px" width="41px" x="760px" y="320px" /><rect fill="rgb(224,81,87)" height="41px" width="41px" x="800px" y="320px" /><rect fill="rgb(224,81,87)" height="41px" width="41px" x="840px" y="320px" /><rect fill="rgb(224,81,87)" height="41px" width="41px" x="880px" y="320px" /><rect fill="rgb(224,81,87)" height="41px" width="41px" x="920px" y="320px" /><rect fill="rgb(224,81,87)" height="41px" width="41px" x="960px" y="320px" /><rect fill="rgb(224,81,87)" height="41px" width="41px" x="1000px" y="320px" /><rect fill="rgb(224,81,87)" height="41px" width="41px" x="1040px" y="320px" /><rect fill="rgb(224,81,87)" height="41px" width="41px" x="1080px" y="320px" /><rect fill="rgb(224,81,87)" height="41px" width="41px" x="1120px" y="320px" /><rect fill="rgb(224,81,87)" height="41px" width="41px" x="1160px" y="320px" /><rect fill="rgb(224,81,87)" height="41px" width="41px" x="1200px" y="320px" /><rect fill="rgb(224,81,87)" height="41px" width="41px" x="1240px" y="320px" /><rect fill="rgb(189,31,135)" height="41px" width="41px" x="0px" y="360px" /><rect fill="rgb(189,31,135)" height="41px" width="41px" x="40px" y="360px" /><rect fill="rgb(224,81,87)" height="41px" width="41px" x="80px" y="360px" /><rect fill="rgb(224,81,87)" height="41px" width="41px" x="120px" y="360px" /><rect fill="rgb(224,81,87)" height="41px" width="41px" x="160px" y="360px" /><rect fill="rgb(224,81,87)" height="41px" width="41px" x="200px" y="360px" /><rect fill="rgb(224,81,87)" height="41px" width="41px" x="240px" y="360px" /><rect fill="rgb(224,81,87)" height="41px" width="41px" x="280px" y="360px" /><rect fill="rgb(224,81,87)" height="41px" width="41px" x="320px" y="360px" /><rect fill="rgb(224,81,87)" height="41px" width="41px" x="360px" y="360px" /><rect fill="rgb(224,81,87)" height="41px" width="41px" x="400px" y="360px" /><rect fill="rgb(224,81,87)" height="41px" width="41px" x="440px" y="360px" /><rect fill="rgb(224,81,87)" height="41px" width="41px" x="480px" y="360px" /><rect fill="rgb(224,81,87)" height="41px" width="41px" x="520px" y="360px" /><rect fill="rgb(189,31,135)" height="41px" width="41px" x="560px" y="360px" /><rect fill="rgb(189,31,135)" height="41px" width="41px" x="600px" y="360px" /><rect fill="rgb(189,31,135)" height="41px" width="41px" x="640px" y="360px" /><rect fill="rgb(189,31,135)" height="41px" width="41px" x="680px" y="360px" /><rect fill="rgb(224,81,87)" height="41px" width="41px" x="720px" y="360px" /><rect fill="rgb(224,81,87)" height="41px" width="41px" x="760px" y="360px" /><rect fill="rgb(224,81,87)" height="41px" width="41px" x="800px" y="360px" /><rect fill="rgb(224,81,87)" height="41px" width="41px" x="840px" y="360px" /><rect fill="rgb(224,81,87)" height="41px" width="41px" x="880px" y="360px" /><rect fill="rgb(224,81,87)" height="41px" width="41px" x="920px" y="360px" /><rect fill="rgb(224,81,87)" height="41px" width="41px" x="960px" y="360px" /><rect fill="rgb(224,81,87)" height="41px" width="41px" x="1000px" y="360px" /><rect fill="rgb(224,81,87)" height="41px" width="41px" x="1040px" y="360px" /><rect fill="rgb(224,81,87)" height="41px" width="41px" x="1080px" y="360px" /><rect fill="rgb(224,81,87)" height="41px" width="41px" x="1120px" y="360px" /><rect fill="rgb(224,81,87)" height="41px" width="41px" x="1160px" y="360px" /><rect fill="rgb(189,31,135)" height="41px" width="41px" x="1200px" y="360px" /><rect fill="rgb(189,31,135)" height="41px" width="41px" x="1240px" y="360px" /><rect fill="rgb(189,31,135)" height="41px" width="41px" x="0px" y="400px" /><rect fill="rgb(189,31,135)" height="41px" width="41px" x="40px" y="400px" /><rect fill="rgb(224,81,87)" height="41px" width="41px" x="80px" y="400px" /><rect fill="rgb(224,81,87)" height="41px" width="41px" x="120px" y="400px" /><rect fill="rgb(224,81,87)" height="41px" width="41px" x="160px" y="400px" /><rect fill="rgb(224,81,87)" height="41px" width="41px" x="200px" y="400px" /><rect fill="rgb(224,81,87)" height="41px" width="41px" x="240px" y="400px" /><rect fill="rgb(224,81,87)" height="41px" width="41px" x="280px" y="400px" /><rect fill="rgb(224,81,87)" height="41px" width="41px" x="320px" y="400px" /><rect fill="rgb(224,81,87)" height="41px" width="41px" x="360px" y="400px" /><rect fill="rgb(224,81,87)" height="41px" width="41px" x="400px" y="400px" /><rect fill="rgb(224,81,87)" height="41px" width="41px" x="440px" y="400px" /><rect fill="rgb(224,81,87)" height="41px" width="41px" x="480px" y="400px" /><rect fill="rgb(224,81,87)" height="41px" width="41px" x="520px" y="400px" /><rect fill="rgb(189,31,135)" height="41px" width="41px" x="560px" y="400px" /><rect fill="rgb(189,31,135)" height="41px" width="41px" x="600px" y="400px" /><rect fill="rgb(189,31,135)" height="41px" width="41px" x="640px" y="400px" /><rect fill="rgb(189,31,135)" height="41px" width="41px" x="680px" y="400px" /><rect fill="rgb(224,81,87)" height="41px" width="41px" x="720px" y="400px" /><rect fill="rgb(224,81,87)" height="41px" width="41px" x="760px" y="400px" /><rect fill="rgb(224,81,87)" height="41px" width="41px" x="800px" y="400px" /><rect fill="rgb(224,81,87)" height="41px" width="41px" x="840px" y="400px" /><rect fill="rgb(224,81,87)" height="41px" width="41px" x="880px" y="400px" /><rect fill="rgb(224,81,87)" height="41px" width="41px" x="920px" y="400px" /><rect fill="rgb(224,81,87)" height="41px" width="41px" x="960px" y="400px" /><rect fill="rgb(224,81,87)" height="41px" width="41px" x="1000px" y="400px" /><rect fill="rgb(224,81,87)" height="41px" width="41px" x="1040px" y="400px" /><rect fill="rgb(224,81,87)" height="41px" width="41px" x="1080px" y="400px" /><rect fill="rgb(224,81,87)" height="41px" width="41px" x="1120px" y="400px" /><rect fill="rgb(224,81,87)" height="41px" width="41px" x="1160px" y="400px" /><rect fill="rgb(189,31,135)" height="41px" width="41px" x="1200px" y="400px" /><rect fill="rgb(189,31,135)" height="41px" width="41px" x="1240px" y="400px" /><rect fill="rgb(224,81,87)" height="41px" width="41px" x="80px" y="440px" /><rect fill="rgb(224,81,87)" height="41px" width="41px" x="120px" y="440px" /><rect fill="rgb(189,31,135)" height="41px" width="41px" x="160px" y="440px" /><rect fill="rgb(189,31,135)" height="41px" width="41px" x="200px" y="440px" /><rect fill="rgb(224,81,87)" height="41px" width="41px" x="240px" y="440px" /><rect fill="rgb(224,81,87)" height="41px" width="41px" x="280px" y="440px" /><rect fill="rgb(224,81,87)" height="41px" width="41px" x="320px" y="440px" /><rect fill="rgb(224,81,87)" height="41px" width="41px" x="360px" y="440px" /><rect fill="rgb(189,31,135)" height="41px" width="41px" x="400px" y="440px" /><rect fill="rgb(189,31,135)" height="41px" width="41px" x="440px" y="440px" /><rect fill="rgb(224,81,87)" height="41px" width="41px" x="480px" y="440px" /><rect fill="rgb(224,81,87)" height="41px" width="41px" x="520px" y="440px" /><rect fill="rgb(224,81,87)" height="41px" width="41px" x="720px" y="440px" /><rect fill="rgb(224,81,87)" height="41px" width="41px" x="760px" y="440px" /><rect fill="rgb(189,31,135)" height="41px" width="41px" x="800px" y="440px" /><rect fill="rgb(189,31,135)" height="41px" width="41px" x="840px" y="440px" /><rect fill="rgb(224,81,87)" height="41px" width="41px" x="880px" y="440px" /><rect fill="rgb(224,81,87)" height="41px" width="41px" x="920px" y="440px" /><rect fill="rgb(224,81,87)" height="41px" width="41px" x="960px" y="440px" /><rect fill="rgb(224,81,87)" height="41px" width="41px" x="1000px" y="440px" /><rect fill="rgb(189,31,135)" height="41px" width="41px" x="1040px" y="440px" /><rect fill="rgb(189,31,135)" height="41px" width="41px" x="1080px" y="440px" /><rect fill="rgb(224,81,87)" height="41px" width="41px" x="1120px" y="440px" /><rect fill="rgb(224,81,87)" height="41px" width="41px" x="1160px" y="440px" /><rect fill="rgb(189,31,135)" height="41px" width="41px" x="0px" y="480px" /><rect fill="rgb(189,31,135)" height="41px" width="41px" x="40px" y="480px" /><rect fill="rgb(224,81,87)" height="41px" width="41px" x="80px" y="480px" /><rect fill="rgb(224,81,87)" height="41px" width="41px" x="120px" y="480px" /><rect fill="rgb(189,31,135)" height="41px" width="41px" x="160px" y="480px" /><rect fill="rgb(189,31,135)" height="41px" width="41px" x="200px" y="480px" /><rect fill="rgb(189,31,135)" height="41px" width="41px" x="240px" y="480px" /><rect fill="rgb(189,31,135)" height="41px" width="41px" x="280px" y="480px" /><rect fill="rgb(224,81,87)" height="41px" width="41px" x="320px" y="480px" /><rect fill="rgb(224,81,87)" height="41px" width="41px" x="360px" y="480px" /><rect fill="rgb(189,31,135)" height="41px" width="41px" x="400px" y="480px" /><rect fill="rgb(189,31,135)" height="41px" width="41px" x="440px" y="480px" /><rect fill="rgb(224,81,87)" height="41px" width="41px" x="480px" y="480px" /><rect fill="rgb(224,81,87)" height="41px" width="41px" x="520px" y="480px" /><rect fill="rgb(189,31,135)" height="41px" width="41px" x="560px" y="480px" /><rect fill="rgb(189,31,135)" height="41px" width="41px" x="600px" y="480px" /><rect fill="rgb(224,81,87)" height="41px" width="41px" x="640px" y="480px" /><rect fill="rgb(224,81,87)" height="41px" width="41px" x="680px" y="480px" /><rect fill="rgb(189,31,135)" height="41px" width="41px" x="720px" y="480px" /><rect fill="rgb(189,31,135)" height="41px" width="41px" x="760px" y="480px" /><rect fill="rgb(189,31,135)" height="41px" width="41px" x="800px" y="480px" /><rect fill="rgb(189,31,135)" height="41px" width="41px" x="840px" y="480px" /><rect fill="rgb(224,81,87)" height="41px" width="41px" x="880px" y="480px" /><rect fill="rgb(224,81,87)" height="41px" width="41px" x="920px" y="480px" /><rect fill="rgb(189,31,135)" height="41px" width="41px" x="960px" y="480px" /><rect fill="rgb(189,31,135)" height="41px" width="41px" x="1000px" y="480px" /><rect fill="rgb(189,31,135)" height="41px" width="41px" x="1040px" y="480px" /><rect fill="rgb(189,31,135)" height="41px" width="41px" x="1080px" y="480px" /><rect fill="rgb(189,31,135)" height="41px" width="41px" x="1120px" y="480px" /><rect fill="rgb(189,31,135)" height="41px" width="41px" x="1160px" y="480px" /><rect fill="rgb(224,81,87)" height="41px" width="41px" x="1200px" y="480px" /><rect fill="rgb(224,81,87)" height="41px" width="41px" x="1240px" y="480px" /><rect fill="rgb(189,31,135)" height="41px" width="41px" x="0px" y="520px" /><rect fill="rgb(189,31,135)" height="41px" width="41px" x="40px" y="520px" /><rect fill="rgb(224,81,87)" height="41px" width="41px" x="80px" y="520px" /><rect fill="rgb(224,81,87)" height="41px" width="41px" x="120px" y="520px" /><rect fill="rgb(189,31,135)" height="41px" width="41px" x="240px" y="520px" /><rect fill="rgb(189,31,135)" height="41px" width="41px" x="280px" y="520px" /><rect fill="rgb(224,81,87)" height="41px" width="41px" x="320px" y="520px" /><rect fill="rgb(224,81,87)" height="41px" width="41px" x="360px" y="520px" /><rect fill="rgb(224,81,87)" height="41px" width="41px" x="480px" y="520px" /><rect fill="rgb(224,81,87)" height="41px" width="41px" x="520px" y="520px" /><rect fill="rgb(189,31,135)" height="41px" width="41px" x="560px" y="520px" /><rect fill="rgb(189,31,135)" height="41px" width="41px" x="600px" y="520px" /><rect fill="rgb(224,81,87)" height="41px" width="41px" x="640px" y="520px" /><rect fill="rgb(224,81,87)" height="41px" width="41px" x="680px" y="520px" /><rect fill="rgb(189,31,135)" height="41px" width="41px" x="720px" y="520px" /><rect fill="rgb(189,31,135)" height="41px" width="41px" x="760px" y="520px" /><rect fill="rgb(224,81,87)" height="41px" width="41px" x="880px" y="520px" /><rect fill="rgb(224,81,87)" height="41px" width="41px" x="920px" y="520px" /><rect fill="rgb(189,31,135)" height="41px" width="41px" x="960px" y="520px" /><rect fill="rgb(189,31,135)" height="41px" width="41px" x="1000px" y="520px" /><rect fill="rgb(189,31,135)" height="41px" width="41px" x="1120px" y="520px" /><rect fill="rgb(189,31,135)" height="41px" width="41px" x="1160px" y="520px" /><rect fill="rgb(224,81,87)" height="41px" width="41px" x="1200px" y="520px" /><rect fill="rgb(224,81,87)" height="41px" width="41px" x="1240px" y="520px" /><rect fill="rgb(224,81,87)" height="41px" width="41px" x="80px" y="560px" /><rect fill="rgb(224,81,87)" height="41px" width="41px" x="120px" y="560px" /><rect fill="rgb(224,81,87)" height="41px" width="41px" x="320px" y="560px" /><rect fill="rgb(224,81,87)" height="41px" width="41px" x="360px" y="560px" /><rect fill="rgb(224,81,87)" height="41px" width="41px" x="480px" y="560px" /><rect fill="rgb(224,81,87)" height="41px" width="41px" x="520px" y="560px" /><rect fill="rgb(224,81,87)" height="41px" width="41px" x="640px" y="560px" /><rect fill="rgb(224,81,87)" height="41px" width="41px" x="680px" y="560px" /><rect fill="rgb(224,81,87)" height="41px" width="41px" x="880px" y="560px" /><rect fill="rgb(224,81,87)" height="41px" width="41px" x="920px" y="560px" /><rect fill="rgb(224,81,87)" height="41px" width="41px" x="1200px" y="560px" /><rect fill="rgb(224,81,87)" height="41px" width="41px" x="1240px" y="560px" /><rect fill="rgb(224,81,87)" height="41px" width="41px" x="80px" y="600px" /><rect fill="rgb(224,81,87)" height="41px" width="41px" x="120px" y="600px" /><rect fill="rgb(224,81,87)" height="41px" width="41px" x="320px" y="600px" /><rect fill="rgb(224,81,87)" height="41px" width="41px" x="360px" y="600px" /><rect fill="rgb(224,81,87)" height="41px" width="41px" x="480px" y="600px" /><rect fill="rgb(224,81,87)" height="41px" width="41px" x="520px" y="600px" /><rect fill="rgb(224,81,87)" height="41px" width="41px" x="640px" y="600px" /><rect fill="rgb(224,81,87)" height="41px" width="41px" x="680px" y="600px" /><rect fill="rgb(224,81,87)" height="41px" width="41px" x="880px" y="600px" /><rect fill="rgb(224,81,87)" height="41px" width="41px" x="920px" y="600px" /><rect fill="rgb(224,81,87)" height="41px" width="41px" x="1200px" y="600px" /><rect fill="rgb(224,81,87)" height="41px" width="41px" x="1240px" y="600px" /></svg>