<?xml version="1.0" encoding="utf-8" ?>
<svg shape-rendering="optimizeSpeed" baseProfile="full" height="640px" version="1.1" width="640px" xmlns="http://www.w3.org/2000/svg" xmlns:ev="http://www.w3.org/2001/xml-events" xmlns:xlink="http://www.w3.org/1999/xlink"><defs /><rect fill="rgb(9,166,62)" height="41px" width="41px" x="200px" y="240px" /><rect fill="rgb(9,166,62)" height="41px" width="41px" x="240px" y="240px" /><rect fill="rgb(77,234,130)" height="41px" width="41px" x="280px" y="240px" /><rect fill="rgb(77,234,130)" height="41px" width="41px" x="320px" y="240px" /><rect fill="rgb(9,166,62)" height="41px" width="41px" x="360px" y="240px" /><rect fill="rgb(9,166,62)" height="41px" width="41px" x="400px" y="240px" /><rect fill="rgb(77,234,130)" height="41px" width="41px" x="200px" y="280px" /><rect fill="rgb(77,234,130)" height="41px" width="41px" x="240px" y="280px" /><rect fill="rgb(255,255,255)" height="41px" width="41px" x="280px" y="280px" /><rect fill="rgb(255,255,255)" height="41px" width="41px" x="320px" y="280px" /><rect fill="rgb(77,234,130)" height="41px" width="41px" x="360px" y="280px" /><rect fill="rgb(77,234,130)" height="41px" width="41px" x="400px" y="280px" /><rect fill="rgb(77,234,130)" height="41px" width="41px" x="200px" y="320px" /><rect fill="rgb(77,234,130)" height="41px" width="41px" x="240px" y="320px" /><rect fill="rgb(255,255,255)" height="41px" width="41px" x="280px" y="320px" /><rect fill="rgb(255,255,255)" height="41px" width="41px" x="320px" y="320px" /><rect fill="rgb(77,234,130)" height="41px" width="41px" x="360px" y="320px" /><rect fill="rgb(77,234,130)" height="41px" width="41px" x="400px" y="320px" /><rect fill="rgb(9,166,62)" height="41px" width="41px" x="200px" y="360px" /><rect fill="rgb(9,166,62)" height="41px" width="41px" x="240px" y="360px" /><rect fill="rgb(77,234,130)" height="41px" width="41px" x="280px" y="360px" /><rect fill="rgb(77,234,130)" height="41px" width="41px" x="320px" y="360px" /><rect fill="rgb(9,166,62)" height="41px" width="41px" x="360px" y="360px" /><rect fill="rgb(9,166,62)" height="41px" width="41px" x="400px" y="360px" /></svg>